<svg xmlns="http://www.w3.org/2000/svg" width="315.6" height="20.8" viewBox="0 0 315.6 20.8">
  <g id="Group_486" transform="translate(-570.5 -301.4)">
    <g id="Group_1364" data-name="Group 1364">
      <path id="Path_431" data-name="Path 431" d="M584.5,318.4h-7.6l-1.2,3.6h-5.2l7.4-20.4h5.7L591,322h-5.2Zm-1.3-3.8-2.5-7.5-2.5,7.5Z" fill="#161853"/>
      <path id="Path_432" data-name="Path 432" d="M608.3,313.3a5.1,5.1,0,0,1,1.1,3.1,4.9,4.9,0,0,1-1.8,4,7.465,7.465,0,0,1-5,1.5h-9.5V301.5h9.2a7.928,7.928,0,0,1,4.9,1.4,4.578,4.578,0,0,1,1.8,3.9,4.859,4.859,0,0,1-.9,3,5.584,5.584,0,0,1-2.5,1.7A5,5,0,0,1,608.3,313.3Zm-10.2-3.4h3.2a3.557,3.557,0,0,0,1.9-.5,1.753,1.753,0,0,0,.7-1.6,1.865,1.865,0,0,0-.7-1.6,2.883,2.883,0,0,0-1.9-.6h-3.2Zm5.6,7.5a1.865,1.865,0,0,0,.7-1.6,2.06,2.06,0,0,0-.7-1.7,2.986,2.986,0,0,0-2-.6h-3.6V318h3.7A2.707,2.707,0,0,0,603.7,317.4Z" fill="#161853"/>
      <path id="Path_433" data-name="Path 433" d="M616.6,320.9a9.658,9.658,0,0,1-3.8-3.7,11.114,11.114,0,0,1,0-10.8,9.659,9.659,0,0,1,3.8-3.7,10.416,10.416,0,0,1,5.3-1.3,10.674,10.674,0,0,1,5.3,1.3,9.658,9.658,0,0,1,3.8,3.7,11.114,11.114,0,0,1,0,10.8,9.659,9.659,0,0,1-3.8,3.7,10.3,10.3,0,0,1-5.2,1.3A10.792,10.792,0,0,1,616.6,320.9Zm9.2-4.8a6.913,6.913,0,0,0,0-8.6,4.987,4.987,0,0,0-3.9-1.6,4.849,4.849,0,0,0-3.9,1.6,6.913,6.913,0,0,0,0,8.6,4.987,4.987,0,0,0,3.9,1.6A5.349,5.349,0,0,0,625.8,316.1Z" fill="#161853"/>
      <path id="Path_434" data-name="Path 434" d="M639.9,301.6v12.2a3.927,3.927,0,0,0,.9,2.8,3.252,3.252,0,0,0,2.6,1,3.62,3.62,0,0,0,2.7-1,4.1,4.1,0,0,0,.9-2.8V301.6h5v12.2a8.285,8.285,0,0,1-1.2,4.6,6.964,6.964,0,0,1-3.1,2.8,10.531,10.531,0,0,1-4.4,1,10.03,10.03,0,0,1-4.3-.9,6.778,6.778,0,0,1-3-2.8,9.48,9.48,0,0,1-1.1-4.6V301.7h5Z" fill="#161853"/>
      <path id="Path_435" data-name="Path 435" d="M670.2,301.6v4h-5.4V322h-5V305.6h-5.4v-4Z" fill="#161853"/>
      <path id="Path_436" data-name="Path 436" d="M693.5,301.6v4h-5.4V322h-5V305.6h-5.4v-4Z" fill="#161853"/>
      <path id="Path_437" data-name="Path 437" d="M713.6,301.6V322h-5v-8.4h-7.7V322h-5V301.6h5v8h7.7v-8Z" fill="#161853"/>
      <path id="Path_438" data-name="Path 438" d="M722.1,305.6v4.1h6.6v3.8h-6.6V318h7.5v4H717.1V301.6h12.5v4Z" fill="#161853"/>
      <path id="Path_439" data-name="Path 439" d="M753.7,311.4a5.812,5.812,0,0,1-2.5,2.4,8.712,8.712,0,0,1-4.2.9h-3.1V322h-5V301.6h8a9.979,9.979,0,0,1,4.1.8,5.111,5.111,0,0,1,2.5,2.3,6.346,6.346,0,0,1,.8,3.4A5.058,5.058,0,0,1,753.7,311.4Zm-4.9-1.3a2.352,2.352,0,0,0,.7-1.9,2.489,2.489,0,0,0-.7-1.9,3.3,3.3,0,0,0-2.1-.7H744v5.1h2.7A3.281,3.281,0,0,0,748.8,310.1Z" fill="#161853"/>
      <path id="Path_440" data-name="Path 440" d="M767.5,322l-4.2-7.7H762V322h-5V301.6h8.3a9.979,9.979,0,0,1,4.1.8,5.615,5.615,0,0,1,2.5,2.3,6.216,6.216,0,0,1,.8,3.3,6.147,6.147,0,0,1-1.1,3.6,6.471,6.471,0,0,1-3.4,2.3l4.7,8.1h-5.4ZM762,310.8h3.1a2.444,2.444,0,0,0,2-.7,2.352,2.352,0,0,0,.7-1.9,2.139,2.139,0,0,0-.7-1.8,3.011,3.011,0,0,0-2-.7H762Z" fill="#161853"/>
      <path id="Path_441" data-name="Path 441" d="M780.3,320.9a9.658,9.658,0,0,1-3.8-3.7,11.114,11.114,0,0,1,0-10.8,9.659,9.659,0,0,1,3.8-3.7,10.416,10.416,0,0,1,5.3-1.3,10.674,10.674,0,0,1,5.3,1.3,9.658,9.658,0,0,1,3.8,3.7,11.114,11.114,0,0,1,0,10.8,9.659,9.659,0,0,1-3.8,3.7,10.3,10.3,0,0,1-5.2,1.3A10.792,10.792,0,0,1,780.3,320.9Zm9.2-4.8a6.913,6.913,0,0,0,0-8.6,4.987,4.987,0,0,0-3.9-1.6,4.849,4.849,0,0,0-3.9,1.6,6.913,6.913,0,0,0,0,8.6,4.987,4.987,0,0,0,3.9,1.6A5.349,5.349,0,0,0,789.5,316.1Z" fill="#161853"/>
      <path id="Path_442" data-name="Path 442" d="M813.5,311.4a5.812,5.812,0,0,1-2.5,2.4,8.712,8.712,0,0,1-4.2.9h-3.1V322h-5V301.6h8a9.979,9.979,0,0,1,4.1.8,5.615,5.615,0,0,1,2.5,2.3,6.346,6.346,0,0,1,.8,3.4A5.058,5.058,0,0,1,813.5,311.4Zm-4.9-1.3a2.352,2.352,0,0,0,.7-1.9,2.489,2.489,0,0,0-.7-1.9,3.3,3.3,0,0,0-2.1-.7h-2.7v5.1h2.7A3.281,3.281,0,0,0,808.6,310.1Z" fill="#161853"/>
      <path id="Path_443" data-name="Path 443" d="M821.8,305.6v4.1h6.6v3.8h-6.6V318h7.5v4H816.8V301.6h12.5v4Z" fill="#161853"/>
      <path id="Path_444" data-name="Path 444" d="M842.9,322l-4.2-7.7h-1.2V322h-5V301.6h8.3a9.979,9.979,0,0,1,4.1.8,5.111,5.111,0,0,1,2.5,2.3,6.216,6.216,0,0,1,.8,3.3,6.147,6.147,0,0,1-1.1,3.6,6.471,6.471,0,0,1-3.4,2.3l4.7,8.1h-5.5Zm-5.4-11.2h3.1a2.444,2.444,0,0,0,2-.7,2.352,2.352,0,0,0,.7-1.9,2.139,2.139,0,0,0-.7-1.8,3.011,3.011,0,0,0-2-.7h-3.1Z" fill="#161853"/>
      <path id="Path_445" data-name="Path 445" d="M866.1,301.6v4h-5.4V322h-5V305.6h-5.4v-4Z" fill="#161853"/>
      <path id="Path_446" data-name="Path 446" d="M886.1,301.6l-7,13.6v6.7h-5v-6.7l-7-13.6h5.6l3.9,8.5,3.9-8.5Z" fill="#161853"/>
    </g>
    <g id="Component_2_18" transform="translate(635 300)">
      <g id="Ellipse_13">
        <g id="Group_1365" data-name="Group 1365">
          <circle id="Ellipse_127" data-name="Ellipse 127" cx="2.5" cy="2.5" r="2.5" transform="translate(153.5 3.5)" fill="#ec255a"/>
        </g>
        <g id="Group_1366" data-name="Group 1366">
          <path id="Path_447" data-name="Path 447" d="M156,10.5A4.5,4.5,0,1,1,160.5,6,4.546,4.546,0,0,1,156,10.5Zm0-7A2.5,2.5,0,1,0,158.5,6,2.54,2.54,0,0,0,156,3.5Z" fill="#fff"/>
        </g>
      </g>
    </g>
  </g>
</svg>
