<svg xmlns="http://www.w3.org/2000/svg" width="244.7" height="22.2" viewBox="0 0 244.7 22.2">
  <g id="Group_316" transform="translate(-570.5 -300)">
    <g id="Group_1361" data-name="Group 1361">
      <path id="Path_418" data-name="Path 418" d="M584.5,318.4h-7.6l-1.2,3.6h-5.2l7.4-20.4h5.7L591,322h-5.2Zm-1.3-3.8-2.5-7.5-2.5,7.5Z" fill="#161853"/>
      <path id="Path_419" data-name="Path 419" d="M608.3,313.3a5.1,5.1,0,0,1,1.1,3.1,4.9,4.9,0,0,1-1.8,4,7.465,7.465,0,0,1-5,1.5h-9.5V301.5h9.2a7.928,7.928,0,0,1,4.9,1.4,4.578,4.578,0,0,1,1.8,3.9,4.859,4.859,0,0,1-.9,3,5.584,5.584,0,0,1-2.5,1.7A5,5,0,0,1,608.3,313.3Zm-10.2-3.4h3.2a3.557,3.557,0,0,0,1.9-.5,1.753,1.753,0,0,0,.7-1.6,1.865,1.865,0,0,0-.7-1.6,2.883,2.883,0,0,0-1.9-.6h-3.2Zm5.6,7.5a1.865,1.865,0,0,0,.7-1.6,2.06,2.06,0,0,0-.7-1.7,2.986,2.986,0,0,0-2-.6h-3.6V318h3.7A2.707,2.707,0,0,0,603.7,317.4Z" fill="#161853"/>
      <path id="Path_420" data-name="Path 420" d="M616.6,320.9a9.658,9.658,0,0,1-3.8-3.7,11.114,11.114,0,0,1,0-10.8,9.659,9.659,0,0,1,3.8-3.7,10.416,10.416,0,0,1,5.3-1.3,10.674,10.674,0,0,1,5.3,1.3,9.658,9.658,0,0,1,3.8,3.7,11.114,11.114,0,0,1,0,10.8,9.659,9.659,0,0,1-3.8,3.7,10.3,10.3,0,0,1-5.2,1.3A10.792,10.792,0,0,1,616.6,320.9Zm9.2-4.8a6.913,6.913,0,0,0,0-8.6,4.987,4.987,0,0,0-3.9-1.6,4.849,4.849,0,0,0-3.9,1.6,6.913,6.913,0,0,0,0,8.6,4.987,4.987,0,0,0,3.9,1.6A5.349,5.349,0,0,0,625.8,316.1Z" fill="#161853"/>
      <path id="Path_421" data-name="Path 421" d="M639.9,301.6v12.2a3.927,3.927,0,0,0,.9,2.8,3.252,3.252,0,0,0,2.6,1,3.62,3.62,0,0,0,2.7-1,4.1,4.1,0,0,0,.9-2.8V301.6h5v12.2a8.285,8.285,0,0,1-1.2,4.6,6.964,6.964,0,0,1-3.1,2.8,10.531,10.531,0,0,1-4.4,1,10.03,10.03,0,0,1-4.3-.9,6.778,6.778,0,0,1-3-2.8,9.48,9.48,0,0,1-1.1-4.6V301.7h5Z" fill="#161853"/>
      <path id="Path_422" data-name="Path 422" d="M670.2,301.6v4h-5.4V322h-5V305.6h-5.4v-4Z" fill="#161853"/>
      <path id="Path_423" data-name="Path 423" d="M693.5,301.6v4h-5.4V322h-5V305.6h-5.4v-4Z" fill="#161853"/>
      <path id="Path_424" data-name="Path 424" d="M713.6,301.6V322h-5v-8.4h-7.7V322h-5V301.6h5v8h7.7v-8Z" fill="#161853"/>
      <path id="Path_425" data-name="Path 425" d="M722.1,305.6v4.1h6.6v3.8h-6.6V318h7.5v4H717.1V301.6h12.5v4Z" fill="#161853"/>
      <path id="Path_426" data-name="Path 426" d="M743.9,318.2h6.5V322H739V301.6h5v16.6Z" fill="#161853"/>
      <path id="Path_427" data-name="Path 427" d="M757.2,320.9a9.658,9.658,0,0,1-3.8-3.7,11.114,11.114,0,0,1,0-10.8,9.659,9.659,0,0,1,3.8-3.7,11.454,11.454,0,0,1,10.6,0,9.658,9.658,0,0,1,3.8,3.7,11.114,11.114,0,0,1,0,10.8,9.659,9.659,0,0,1-3.8,3.7,10.3,10.3,0,0,1-5.2,1.3A11.055,11.055,0,0,1,757.2,320.9Zm9.1-4.8a6.913,6.913,0,0,0,0-8.6,4.987,4.987,0,0,0-3.9-1.6,4.849,4.849,0,0,0-3.9,1.6,6.58,6.58,0,0,0-1.5,4.3,6.089,6.089,0,0,0,1.5,4.3,5.553,5.553,0,0,0,7.8,0Z" fill="#161853"/>
      <path id="Path_428" data-name="Path 428" d="M788.3,318.4h-7.6l-1.2,3.6h-5.2l7.4-20.4h5.7l7.4,20.4h-5.2Zm-1.3-3.8-2.5-7.5-2.5,7.5Z" fill="#161853"/>
      <path id="Path_429" data-name="Path 429" d="M815.2,322h-5l-8.3-12.6V322h-5V301.6h5l8.3,12.6V301.6h5Z" fill="#161853"/>
    </g>
    <g id="Component_2_2" transform="translate(756 302)">
      <g id="Ellipse_13">
        <g id="Group_1362" data-name="Group 1362">
          <circle id="Ellipse_126" data-name="Ellipse 126" cx="2.5" cy="2.5" r="2.5" fill="#ec255a"/>
        </g>
        <g id="Group_1363" data-name="Group 1363">
          <path id="Path_430" data-name="Path 430" d="M2.5,7A4.481,4.481,0,0,1-2,2.5,4.481,4.481,0,0,1,2.5-2,4.481,4.481,0,0,1,7,2.5,4.481,4.481,0,0,1,2.5,7Zm0-7A2.476,2.476,0,0,0,0,2.5,2.476,2.476,0,0,0,2.5,5,2.476,2.476,0,0,0,5,2.5,2.476,2.476,0,0,0,2.5,0Z" fill="#fff"/>
        </g>
      </g>
    </g>
  </g>
</svg>
