<svg xmlns="http://www.w3.org/2000/svg" width="167.5" height="22.6" viewBox="0 0 167.5 22.6">
  <g id="Group_437" transform="translate(-570.5 -300.4)">
    <g id="Group_1367" data-name="Group 1367">
      <path id="Path_448" data-name="Path 448" d="M584.5,317.4h-7.6l-1.2,3.6h-5.2l7.4-20.4h5.7L591,321h-5.2Zm-1.3-3.8-2.5-7.5-2.5,7.5Z" fill="#161853"/>
      <path id="Path_449" data-name="Path 449" d="M608.3,312.3a5.1,5.1,0,0,1,1.1,3.1,4.9,4.9,0,0,1-1.8,4,7.465,7.465,0,0,1-5,1.5h-9.5V300.5h9.2a7.928,7.928,0,0,1,4.9,1.4,4.578,4.578,0,0,1,1.8,3.9,4.859,4.859,0,0,1-.9,3,5.584,5.584,0,0,1-2.5,1.7A5,5,0,0,1,608.3,312.3Zm-10.2-3.4h3.2a3.557,3.557,0,0,0,1.9-.5,1.753,1.753,0,0,0,.7-1.6,1.865,1.865,0,0,0-.7-1.6,2.883,2.883,0,0,0-1.9-.6h-3.2Zm5.6,7.5a1.865,1.865,0,0,0,.7-1.6,2.06,2.06,0,0,0-.7-1.7,2.986,2.986,0,0,0-2-.6h-3.6V317h3.7A2.707,2.707,0,0,0,603.7,316.4Z" fill="#161853"/>
      <path id="Path_450" data-name="Path 450" d="M616.6,319.9a9.658,9.658,0,0,1-3.8-3.7,11.114,11.114,0,0,1,0-10.8,9.659,9.659,0,0,1,3.8-3.7,10.416,10.416,0,0,1,5.3-1.3,10.674,10.674,0,0,1,5.3,1.3,9.658,9.658,0,0,1,3.8,3.7,11.114,11.114,0,0,1,0,10.8,9.659,9.659,0,0,1-3.8,3.7,10.3,10.3,0,0,1-5.2,1.3A10.792,10.792,0,0,1,616.6,319.9Zm9.2-4.8a6.913,6.913,0,0,0,0-8.6,4.987,4.987,0,0,0-3.9-1.6,4.849,4.849,0,0,0-3.9,1.6,6.913,6.913,0,0,0,0,8.6,4.987,4.987,0,0,0,3.9,1.6A5.349,5.349,0,0,0,625.8,315.1Z" fill="#161853"/>
      <path id="Path_451" data-name="Path 451" d="M639.9,300.6v12.2a3.927,3.927,0,0,0,.9,2.8,3.252,3.252,0,0,0,2.6,1,3.62,3.62,0,0,0,2.7-1,4.1,4.1,0,0,0,.9-2.8V300.6h5v12.2a8.285,8.285,0,0,1-1.2,4.6,6.964,6.964,0,0,1-3.1,2.8,10.531,10.531,0,0,1-4.4,1,10.03,10.03,0,0,1-4.3-.9,6.778,6.778,0,0,1-3-2.8,9.48,9.48,0,0,1-1.1-4.6V300.7h5Z" fill="#161853"/>
      <path id="Path_452" data-name="Path 452" d="M670.2,300.6v4h-5.4V321h-5V304.6h-5.4v-4Z" fill="#161853"/>
      <path id="Path_453" data-name="Path 453" d="M696.3,300.6l-7,13.6v6.7h-5v-6.7l-7-13.6h5.6l3.9,8.5,3.9-8.5Z" fill="#161853"/>
      <path id="Path_454" data-name="Path 454" d="M702.6,319.9a9.658,9.658,0,0,1-3.8-3.7,11.114,11.114,0,0,1,0-10.8,9.659,9.659,0,0,1,3.8-3.7,10.416,10.416,0,0,1,5.3-1.3,10.674,10.674,0,0,1,5.3,1.3,9.658,9.658,0,0,1,3.8,3.7,11.114,11.114,0,0,1,0,10.8,9.659,9.659,0,0,1-3.8,3.7,10.3,10.3,0,0,1-5.2,1.3A10.792,10.792,0,0,1,702.6,319.9Zm9.2-4.8a6.913,6.913,0,0,0,0-8.6,4.987,4.987,0,0,0-3.9-1.6,4.849,4.849,0,0,0-3.9,1.6,6.913,6.913,0,0,0,0,8.6,4.987,4.987,0,0,0,3.9,1.6A5.349,5.349,0,0,0,711.8,315.1Z" fill="#161853"/>
      <path id="Path_455" data-name="Path 455" d="M725.9,300.6v12.2a3.927,3.927,0,0,0,.9,2.8,3.252,3.252,0,0,0,2.6,1,3.62,3.62,0,0,0,2.7-1,4.1,4.1,0,0,0,.9-2.8V300.6h5v12.2a8.285,8.285,0,0,1-1.2,4.6,6.964,6.964,0,0,1-3.1,2.8,10.531,10.531,0,0,1-4.4,1,10.03,10.03,0,0,1-4.3-.9,6.778,6.778,0,0,1-3-2.8,9.48,9.48,0,0,1-1.1-4.6V300.7h5Z" fill="#161853"/>
    </g>
    <g id="Component_2_1" transform="translate(660 316)">
      <g id="Ellipse_13">
        <g id="Group_1368" data-name="Group 1368">
          <circle id="Ellipse_128" data-name="Ellipse 128" cx="2.5" cy="2.5" r="2.5" fill="#ec255a"/>
        </g>
        <g id="Group_1369" data-name="Group 1369">
          <path id="Path_456" data-name="Path 456" d="M2.5,7A4.481,4.481,0,0,1-2,2.5,4.481,4.481,0,0,1,2.5-2,4.481,4.481,0,0,1,7,2.5,4.481,4.481,0,0,1,2.5,7Zm0-7A2.476,2.476,0,0,0,0,2.5,2.476,2.476,0,0,0,2.5,5,2.476,2.476,0,0,0,5,2.5,2.476,2.476,0,0,0,2.5,0Z" fill="#fff"/>
        </g>
      </g>
    </g>
  </g>
</svg>
