<svg id="Group_764" data-name="Group 764" xmlns="http://www.w3.org/2000/svg" xmlns:xlink="http://www.w3.org/1999/xlink" width="31.596" height="34" viewBox="0 0 31.596 34">
  <defs>
    <clipPath id="clip-path">
      <rect id="Rectangle_341" data-name="Rectangle 341" width="31.596" height="34" fill="#ec255a"/>
    </clipPath>
  </defs>
  <g id="Group_764-2" data-name="Group 764" clip-path="url(#clip-path)">
    <path id="Path_345" data-name="Path 345" d="M31.166,19.474q-1.5-1.5-3-3a1.034,1.034,0,0,0-1.689-.008c-.163.164-.308.344-.461.518l-.1-.042V16.6q0-6.189,0-12.379c0-.891-.35-1.236-1.248-1.236H18.933c0-.431,0-.846,0-1.263,0-.232,0-.465,0-.7A1.083,1.083,0,0,0,18.194,0H7.766a1.149,1.149,0,0,0-.792,1.265c.023.56.005,1.123.005,1.723H1.187A1.037,1.037,0,0,0,.005,4.166Q.005,18.483,0,32.8A1.15,1.15,0,0,0,.792,34H25.167a1.219,1.219,0,0,0,.749-1.294c-.025-1.991-.006-3.983-.014-5.974a.7.7,0,0,1,.23-.549q2.519-2.5,5.027-5.019a1.039,1.039,0,0,0,.007-1.689M8.99,2.019h7.928V5.957H8.99ZM23.895,31.985H2.016V5.005H6.979c0,.589,0,1.171,0,1.755,0,.837.376,1.209,1.219,1.209h9.563c.8,0,1.17-.374,1.171-1.181q0-.846,0-1.693a.7.7,0,0,1,.026-.1h4.951v.367q0,6.657.005,13.314a.739.739,0,0,1-.236.58c-1.549,1.534-3.083,3.083-4.633,4.617a1.414,1.414,0,0,0-.453,1.092c.015.974,0,1.948.005,2.922a1.021,1.021,0,0,0,1.129,1.132c.808,0,1.617,0,2.424,0,.63,0,1.279.081,1.74-.645Zm5.058-11.433q-3.132,3.134-6.262,6.27a.651.651,0,0,1-.522.211c-.508-.013-1.016,0-1.571,0,0-.619,0-1.222.005-1.826,0-.062.074-.131.128-.184q3.237-3.241,6.477-6.477a.652.652,0,0,1,.089-.066l1.859,1.856c-.059.065-.129.146-.2.221" fill="#ec255a"/>
    <path id="Path_347" data-name="Path 347" d="M112.4,261.241a1,1,0,0,1-1.089.992c-.851,0-1.7,0-2.553,0s-1.7,0-2.552,0a1,1,0,1,1,.007-1.99q2.551,0,5.1,0a.992.992,0,0,1,1.082,1" transform="translate(-95.793 -238.199)" fill="#ec255a"/>
    <path id="Path_349" data-name="Path 349" d="M112.4,261.241a1,1,0,0,1-1.089.992c-.851,0-1.7,0-2.553,0s-1.7,0-2.552,0a1,1,0,1,1,.007-1.99q2.551,0,5.1,0a.992.992,0,0,1,1.082,1" transform="translate(-95.793 -242.183)" fill="#ec255a"/>
    <path id="Path_350" data-name="Path 350" d="M112.4,261.241a1,1,0,0,1-1.089.992c-.851,0-1.7,0-2.553,0s-1.7,0-2.552,0a1,1,0,1,1,.007-1.99q2.551,0,5.1,0a.992.992,0,0,1,1.082,1" transform="translate(-95.793 -246.167)" fill="#ec255a"/>
  </g>
</svg>
