<svg xmlns="http://www.w3.org/2000/svg" width="115.3" height="15.3" viewBox="0 0 115.3 15.3">
  <g id="Group_798" transform="translate(-56.4 -158.7)">
    <g id="Group_1385" data-name="Group 1385">
      <path id="Path_519" data-name="Path 519" d="M66,170.5H60.8L60,173H56.4l5.1-14h4l5.1,14H67Zm-.9-2.6-1.7-5.1-1.7,5.1Z" fill="#161853"/>
      <path id="Path_520" data-name="Path 520" d="M82.4,167a3.408,3.408,0,0,1,.7,2.2,3.489,3.489,0,0,1-1.2,2.8,5.107,5.107,0,0,1-3.4,1H72V159h6.3a5.287,5.287,0,0,1,3.4,1,3.287,3.287,0,0,1,1.2,2.7,3.7,3.7,0,0,1-.6,2.1,3.369,3.369,0,0,1-1.7,1.1A2.891,2.891,0,0,1,82.4,167Zm-7-2.4h2.2a1.7,1.7,0,0,0,1.3-.4,1.29,1.29,0,0,0,.5-1.1,1.173,1.173,0,0,0-.5-1.1,1.7,1.7,0,0,0-1.3-.4H75.4Zm3.8,5.2a1.433,1.433,0,0,0,.5-1.1,1.656,1.656,0,0,0-.5-1.2,1.955,1.955,0,0,0-1.4-.4H75.3v3.1h2.5A1.809,1.809,0,0,0,79.2,169.8Z" fill="#161853"/>
      <path id="Path_521" data-name="Path 521" d="M88.2,172.2a6.506,6.506,0,0,1-2.6-2.6,7.566,7.566,0,0,1-1-3.7,6.633,6.633,0,0,1,1-3.7,7.2,7.2,0,0,1,2.6-2.6,6.445,6.445,0,0,1,3.6-.9,7.4,7.4,0,0,1,3.6.9,6.506,6.506,0,0,1,2.6,2.6,7.566,7.566,0,0,1,1,3.7,6.633,6.633,0,0,1-1,3.7,6.506,6.506,0,0,1-2.6,2.6,7.65,7.65,0,0,1-7.2,0Zm6.3-3.3a4.04,4.04,0,0,0,1-3,4.359,4.359,0,0,0-1-3,3.864,3.864,0,0,0-5.4,0,4.04,4.04,0,0,0-1,3,4.359,4.359,0,0,0,1,3,3.343,3.343,0,0,0,2.7,1.1A3.693,3.693,0,0,0,94.5,168.9Z" fill="#161853"/>
      <path id="Path_522" data-name="Path 522" d="M104.2,159v8.4a2.707,2.707,0,0,0,.6,1.9,2.664,2.664,0,0,0,3.6,0,2.883,2.883,0,0,0,.6-1.9V159h3.4v8.4a6.317,6.317,0,0,1-.8,3.2,5.063,5.063,0,0,1-2.1,2,7.251,7.251,0,0,1-6,.1,4.513,4.513,0,0,1-2.1-2,6.317,6.317,0,0,1-.8-3.2V159Z" fill="#161853"/>
      <path id="Path_523" data-name="Path 523" d="M125.1,159v2.7h-3.7V173H118V161.7h-3.7V159Z" fill="#161853"/>
      <path id="Path_524" data-name="Path 524" d="M143.1,159l-4.9,9.4V173h-3.4v-4.6l-4.9-9.4h3.9l2.7,5.9,2.7-5.9Z" fill="#161853"/>
      <path id="Path_525" data-name="Path 525" d="M147.5,172.2a6.506,6.506,0,0,1-2.6-2.6,7.566,7.566,0,0,1-1-3.7,6.633,6.633,0,0,1,1-3.7,7.2,7.2,0,0,1,2.6-2.6,6.445,6.445,0,0,1,3.6-.9,7.4,7.4,0,0,1,3.6.9,6.506,6.506,0,0,1,2.6,2.6,7.566,7.566,0,0,1,1,3.7,6.633,6.633,0,0,1-1,3.7,6.506,6.506,0,0,1-2.6,2.6,7.65,7.65,0,0,1-7.2,0Zm6.3-3.3a4.04,4.04,0,0,0,1-3,4.359,4.359,0,0,0-1-3,3.864,3.864,0,0,0-5.4,0,4.04,4.04,0,0,0-1,3,4.359,4.359,0,0,0,1,3,3.343,3.343,0,0,0,2.7,1.1A3.693,3.693,0,0,0,153.8,168.9Z" fill="#161853"/>
      <path id="Path_526" data-name="Path 526" d="M163.5,159v8.4a2.707,2.707,0,0,0,.6,1.9,2.664,2.664,0,0,0,3.6,0,2.883,2.883,0,0,0,.6-1.9V159h3.4v8.4a6.317,6.317,0,0,1-.8,3.2,5.063,5.063,0,0,1-2.1,2,7.251,7.251,0,0,1-6,.1,4.513,4.513,0,0,1-2.1-2,6.317,6.317,0,0,1-.8-3.2V159Z" fill="#161853"/>
    </g>
    <g id="Component_2_27" transform="translate(118 169)">
      <g id="Ellipse_13">
        <g id="Group_1386" data-name="Group 1386">
          <circle id="Ellipse_134" data-name="Ellipse 134" cx="2" cy="2" r="2" transform="translate(-0.5)" fill="#ec255a"/>
        </g>
        <g id="Group_1387" data-name="Group 1387">
          <path id="Path_527" data-name="Path 527" d="M1.5,5a2.946,2.946,0,0,1-3-3,2.946,2.946,0,0,1,3-3,2.946,2.946,0,0,1,3,3A2.946,2.946,0,0,1,1.5,5Zm0-5a2,2,0,1,0,2,2A2.006,2.006,0,0,0,1.5,0Z" fill="#fff"/>
        </g>
      </g>
    </g>
  </g>
</svg>
