<svg xmlns="http://www.w3.org/2000/svg" width="39.262" height="19.749" viewBox="0 0 39.262 19.749">
  <g id="Group_234" data-name="Group 234" transform="translate(-0.29 -2)">
    <rect id="Rectangle_109" data-name="Rectangle 109" width="9.051" height="1.646" transform="translate(28.852 13.52)" fill="#ec255a"/>
    <path id="Path_157" data-name="Path 157" d="M22.977,15.927H13.1a.85.85,0,0,1-.584-.239L4.29,7.46,5.45,6.3l7.99,7.982h9.537Z" transform="translate(-0.709 -0.762)" fill="#ec255a"/>
    <rect id="Rectangle_110" data-name="Rectangle 110" width="9.051" height="1.646" transform="translate(27.206 16.812)" fill="#ec255a"/>
    <path id="Path_158" data-name="Path 158" d="M20.977,19.927H11.1a.85.85,0,0,1-.584-.239L2.29,11.46,3.45,10.3l7.99,7.982h9.537Z" transform="translate(-0.354 -1.47)" fill="#ec255a"/>
    <path id="Path_159" data-name="Path 159" d="M34.612,21.749H9.1a.85.85,0,0,1-.584-.239L.29,13.281l1.16-1.16L9.44,20.1H34.612Zm4.114-9.874H14.04a.85.85,0,0,1-.584-.239L5.227,3.407a.825.825,0,0,1-.173-.9A.812.812,0,0,1,5.811,2H30.5a.85.85,0,0,1,.584.239l8.229,8.229a.823.823,0,0,1-.584,1.407ZM14.377,10.229H36.735L30.152,3.646H7.795Z" transform="translate(0 0)" fill="#ec255a"/>
    <path id="Path_160" data-name="Path 160" d="M32.634,11.874H26.051a.85.85,0,0,1-.584-.239L17.238,3.407A.823.823,0,0,1,17.822,2h6.583a.85.85,0,0,1,.584.239l8.229,8.229a.823.823,0,0,1-.584,1.407Zm-6.246-1.646h4.254L24.059,3.646H19.805Z" transform="translate(-2.959 0)" fill="#ec255a"/>
    <path id="Path_161" data-name="Path 161" d="M23.823,23.52a.809.809,0,0,1-.667-.346.823.823,0,0,1-.115-.741l3.291-9.874a.834.834,0,0,1,.782-.56H33.7a.82.82,0,0,1,.782,1.078l-3.291,9.874Zm1.144-1.646h4.847l2.74-8.229H27.707Z" transform="translate(-4.023 -1.771)" fill="#ec255a"/>
  </g>
</svg>
