<svg xmlns="http://www.w3.org/2000/svg" width="217.7" height="14.6" viewBox="0 0 217.7 14.6">
  <g id="about_the_property" data-name="about the property" transform="translate(-0.3 -6.7)">
    <g id="Group_1388" data-name="Group 1388">
      <path id="Path_528" data-name="Path 528" d="M10,18.5H4.7L3.9,21H.3L5.4,7h4l5.1,14H10.9Zm-.9-2.6L7.4,10.8,5.7,15.9Z" fill="#161853"/>
      <path id="Path_529" data-name="Path 529" d="M26.4,15a3.408,3.408,0,0,1,.7,2.2A3.489,3.489,0,0,1,25.9,20a5.107,5.107,0,0,1-3.4,1H16V7h6.3a5.287,5.287,0,0,1,3.4,1,3.287,3.287,0,0,1,1.2,2.7,3.7,3.7,0,0,1-.6,2.1,3.369,3.369,0,0,1-1.7,1.1A2.891,2.891,0,0,1,26.4,15Zm-7-2.4h2.2a1.7,1.7,0,0,0,1.3-.4,1.29,1.29,0,0,0,.5-1.1,1.173,1.173,0,0,0-.5-1.1,1.7,1.7,0,0,0-1.3-.4H19.4Zm3.8,5.2a1.433,1.433,0,0,0,.5-1.1,1.656,1.656,0,0,0-.5-1.2,1.955,1.955,0,0,0-1.4-.4H19.3v3.1h2.5A1.809,1.809,0,0,0,23.2,17.8Z" fill="#161853"/>
      <path id="Path_530" data-name="Path 530" d="M32.2,20.2a6.506,6.506,0,0,1-2.6-2.6,7.566,7.566,0,0,1-1-3.7,6.633,6.633,0,0,1,1-3.7,7.2,7.2,0,0,1,2.6-2.6,6.445,6.445,0,0,1,3.6-.9,7.4,7.4,0,0,1,3.6.9A6.506,6.506,0,0,1,42,10.2a7.566,7.566,0,0,1,1,3.7,6.633,6.633,0,0,1-1,3.7,6.506,6.506,0,0,1-2.6,2.6,7.65,7.65,0,0,1-7.2,0Zm6.3-3.3a4.04,4.04,0,0,0,1-3,4.359,4.359,0,0,0-1-3,3.864,3.864,0,0,0-5.4,0,4.04,4.04,0,0,0-1,3,4.359,4.359,0,0,0,1,3A3.343,3.343,0,0,0,35.8,18,3.693,3.693,0,0,0,38.5,16.9Z" fill="#161853"/>
      <path id="Path_531" data-name="Path 531" d="M48.2,7v8.4a2.707,2.707,0,0,0,.6,1.9,2.664,2.664,0,0,0,3.6,0,2.883,2.883,0,0,0,.6-1.9V7h3.4v8.4a6.317,6.317,0,0,1-.8,3.2,5.063,5.063,0,0,1-2.1,2,7.251,7.251,0,0,1-6,.1,4.513,4.513,0,0,1-2.1-2,6.317,6.317,0,0,1-.8-3.2V7Z" fill="#161853"/>
      <path id="Path_532" data-name="Path 532" d="M69.1,7V9.7H65.4V21H62V9.7H58.3V7Z" fill="#161853"/>
      <path id="Path_533" data-name="Path 533" d="M85.1,7V9.7H81.4V21H78V9.7H74.3V7Z" fill="#161853"/>
      <path id="Path_534" data-name="Path 534" d="M99,7V21H95.6V15.2H90.3V21H86.9V7h3.4v5.5h5.3V7Z" fill="#161853"/>
      <path id="Path_535" data-name="Path 535" d="M104.9,9.7v2.8h4.6v2.6h-4.6v3.1h5.2V21h-8.6V7h8.6V9.7Z" fill="#161853"/>
      <path id="Path_536" data-name="Path 536" d="M126.7,13.7a3.778,3.778,0,0,1-1.7,1.6,6.235,6.235,0,0,1-2.9.6H120v5h-3.4V7h5.5a5.808,5.808,0,0,1,2.8.6,3.778,3.778,0,0,1,1.7,1.6,4.645,4.645,0,0,1,.6,2.3A4.193,4.193,0,0,1,126.7,13.7Zm-3.4-.9a1.727,1.727,0,0,0,.5-1.3,1.727,1.727,0,0,0-.5-1.3,2.07,2.07,0,0,0-1.5-.5H120v3.5h1.9A1.955,1.955,0,0,0,123.3,12.8Z" fill="#161853"/>
      <path id="Path_537" data-name="Path 537" d="M136.2,21l-2.9-5.3h-.8V21H129V7h5.7a6.088,6.088,0,0,1,2.8.6,4.034,4.034,0,0,1,1.8,1.6,4.282,4.282,0,0,1,.6,2.2,4.228,4.228,0,0,1-3.1,4.1L140,21Zm-3.8-7.7h2.1a1.978,1.978,0,0,0,1.4-.5,1.728,1.728,0,0,0,.5-1.3,1.9,1.9,0,0,0-.5-1.3,1.978,1.978,0,0,0-1.4-.5h-2.1Z" fill="#161853"/>
      <path id="Path_538" data-name="Path 538" d="M145.1,20.2a6.506,6.506,0,0,1-2.6-2.6,7.566,7.566,0,0,1-1-3.7,6.633,6.633,0,0,1,1-3.7,7.2,7.2,0,0,1,2.6-2.6,7.65,7.65,0,0,1,7.2,0,6.506,6.506,0,0,1,2.6,2.6,7.566,7.566,0,0,1,1,3.7,6.633,6.633,0,0,1-1,3.7,6.506,6.506,0,0,1-2.6,2.6,7.65,7.65,0,0,1-7.2,0Zm6.3-3.3a4.04,4.04,0,0,0,1-3,4.359,4.359,0,0,0-1-3,3.864,3.864,0,0,0-5.4,0,4.04,4.04,0,0,0-1,3,4.359,4.359,0,0,0,1,3,3.864,3.864,0,0,0,5.4,0Z" fill="#161853"/>
      <path id="Path_539" data-name="Path 539" d="M167.9,13.7a3.778,3.778,0,0,1-1.7,1.6,6.235,6.235,0,0,1-2.9.6h-2.1v5h-3.4V7h5.5a5.808,5.808,0,0,1,2.8.6,3.335,3.335,0,0,1,1.7,1.6,4.645,4.645,0,0,1,.6,2.3A3.424,3.424,0,0,1,167.9,13.7Zm-3.4-.9a1.727,1.727,0,0,0,.5-1.3,1.727,1.727,0,0,0-.5-1.3,2.07,2.07,0,0,0-1.5-.5h-1.9v3.5H163A2.076,2.076,0,0,0,164.5,12.8Z" fill="#161853"/>
      <path id="Path_540" data-name="Path 540" d="M173.7,9.7v2.8h4.6v2.6h-4.6v3.1h5.2V21h-8.6V7h8.6V9.7Z" fill="#161853"/>
      <path id="Path_541" data-name="Path 541" d="M188.2,21l-2.9-5.3h-.8V21h-3.4V7h5.7a6.088,6.088,0,0,1,2.8.6,4.034,4.034,0,0,1,1.8,1.6,4.282,4.282,0,0,1,.6,2.2,4.228,4.228,0,0,1-3.1,4.1l3.2,5.6h-3.9Zm-3.7-7.7h2.1a1.978,1.978,0,0,0,1.4-.5,1.727,1.727,0,0,0,.5-1.3,1.9,1.9,0,0,0-.5-1.3,1.978,1.978,0,0,0-1.4-.5h-2.1Z" fill="#161853"/>
      <path id="Path_542" data-name="Path 542" d="M204.2,7V9.7h-3.7V21h-3.4V9.7h-3.7V7Z" fill="#161853"/>
      <path id="Path_543" data-name="Path 543" d="M218,7l-4.9,9.4V21h-3.4V16.4L204.8,7h3.9l2.7,5.9L214.1,7H218Z" fill="#161853"/>
    </g>
    <g id="Component_2_10" transform="translate(213 160)">
      <g id="Ellipse_13">
        <g id="Group_1391" data-name="Group 1391">
          <g id="Group_1390" data-name="Group 1390">
            <g id="Group_1389" data-name="Group 1389">
              <circle id="Ellipse_135" data-name="Ellipse 135" cx="2" cy="2" r="2" transform="translate(-63.1 -152.1)" fill="#ec255a"/>
            </g>
          </g>
        </g>
        <g id="Group_1394" data-name="Group 1394">
          <g id="Group_1393" data-name="Group 1393">
            <g id="Group_1392" data-name="Group 1392">
              <path id="Path_544" data-name="Path 544" d="M-61.1-147.1a2.946,2.946,0,0,1-3-3,2.946,2.946,0,0,1,3-3,2.946,2.946,0,0,1,3,3A3.009,3.009,0,0,1-61.1-147.1Zm0-5a2.006,2.006,0,0,0-2,2,2.006,2.006,0,0,0,2,2,2.006,2.006,0,0,0,2-2A2.006,2.006,0,0,0-61.1-152.1Z" fill="#fff"/>
            </g>
          </g>
        </g>
      </g>
    </g>
  </g>
</svg>
