<svg id="Group_724" data-name="Group 724" xmlns="http://www.w3.org/2000/svg" xmlns:xlink="http://www.w3.org/1999/xlink" width="23.901" height="23.895" viewBox="0 0 23.901 23.895">
  <defs>
    <clipPath id="clip-path">
      <rect id="Rectangle_294" data-name="Rectangle 294" width="23.901" height="23.895" fill="#161853"/>
    </clipPath>
  </defs>
  <g id="Group_724-2" data-name="Group 724" clip-path="url(#clip-path)">
    <path id="Path_308" data-name="Path 308" d="M11.2,0H12.7c.407.053.817.09,1.221.162a11.708,11.708,0,0,1,7.53,4.562,11.582,11.582,0,0,1,2.232,9.462,11.494,11.494,0,0,1-4.064,6.91,11.638,11.638,0,0,1-9.278,2.688,11.5,11.5,0,0,1-6.263-2.866A11.769,11.769,0,0,1,.186,14.032C.106,13.59.061,13.142,0,12.7V11.2c.052-.4.091-.8.159-1.2A11.759,11.759,0,0,1,3.442,3.575,11.707,11.707,0,0,1,9.891.185C10.325.108,10.765.061,11.2,0m.746,22.4A10.455,10.455,0,1,0,1.494,11.937,10.473,10.473,0,0,0,11.948,22.4" transform="translate(0 -0.001)" fill="#161853"/>
    <path id="Path_309" data-name="Path 309" d="M132.994,134.431v.281c0,1.369,0,2.737.006,4.106a1.082,1.082,0,0,0,.13.506.7.7,0,0,0,.811.3.742.742,0,0,0,.546-.752q0-2.088,0-4.176v-.27h.275q2.076,0,4.152,0a.747.747,0,1,0,.023-1.493c-1.4,0-2.8,0-4.2,0h-.251v-.294q0-2.065,0-4.129a.759.759,0,0,0-.479-.755.746.746,0,0,0-1.012.743c0,1.392,0,2.784,0,4.176v.258h-.287q-2.076,0-4.152,0a.747.747,0,1,0,0,1.492c.824,0,1.649,0,2.473,0h1.968" transform="translate(-121.792 -121.736)" fill="#161853"/>
    <path id="Path_310" data-name="Path 310" d="M132.994,134.431h-1.968c-.824,0-1.649,0-2.473,0a.747.747,0,1,1,0-1.492q2.076,0,4.152,0h.287v-.258c0-1.392,0-2.784,0-4.176a.746.746,0,0,1,1.012-.743.759.759,0,0,1,.479.755q0,2.065,0,4.129v.294h.251c1.4,0,2.8,0,4.2,0a.747.747,0,1,1-.023,1.493q-2.076,0-4.152,0h-.275v.27q0,2.088,0,4.176a.742.742,0,0,1-.546.752.7.7,0,0,1-.811-.3,1.082,1.082,0,0,1-.13-.506c-.01-1.368-.006-2.737-.006-4.106v-.281" transform="translate(-121.792 -121.736)" fill="#161853"/>
  </g>
</svg>
