<svg xmlns="http://www.w3.org/2000/svg" width="30.202" height="32.382" viewBox="0 0 30.202 32.382">
  <g id="Group_336" data-name="Group 336" transform="translate(-419.75 -297.368)">
    <g id="Group_335" data-name="Group 335" transform="translate(423.506 298.249)">
      <path id="Path_276" data-name="Path 276" d="M3,23.536v4.317a.7.7,0,0,0,.71.71H8.027a.666.666,0,0,0,.5-.213L24.032,12.856,18.706,7.531,3.213,23.024A.7.7,0,0,0,3,23.536Zm25.15-14.8a1.414,1.414,0,0,0,0-2L24.827,3.413a1.414,1.414,0,0,0-2,0l-2.6,2.6,5.325,5.325,2.6-2.6Z" transform="translate(-3 -2.997)" fill="none" stroke="#161853" stroke-width="1.5"/>
    </g>
    <line id="Line_44" data-name="Line 44" x2="28.571" transform="translate(420.5 329)" fill="none" stroke="#161853" stroke-linecap="round" stroke-width="1.5"/>
  </g>
</svg>
