<svg xmlns="http://www.w3.org/2000/svg" width="37.207" height="37.207" viewBox="0 0 37.207 37.207">
  <g id="Group_220" data-name="Group 220" transform="translate(-0.335 -0.537)">
    <rect id="Rectangle_64" data-name="Rectangle 64" width="37.207" height="37.207" transform="translate(0.335 0.537)" fill="none"/>
    <path id="Path_106" data-name="Path 106" d="M0,0H33" transform="translate(2.477 32.064)" fill="none" stroke="#ec255a" stroke-linecap="round" stroke-width="2"/>
    <path id="Path_39" data-name="Path 39" d="M48.492,59.086V33.161a1.178,1.178,0,0,0-1.178-1.178H33.172a1.178,1.178,0,0,0-1.178,1.178V59.086m28.282,0v-16.5A1.178,1.178,0,0,0,59.1,41.41H48.492" transform="translate(-27.161 -27.022)" fill="none" stroke="#ec255a" stroke-linecap="round" stroke-linejoin="round" stroke-width="2"/>
    <line id="Line_7" data-name="Line 7" x2="4.714" transform="translate(9.546 10.853)" fill="none" stroke="#ec255a" stroke-linecap="round" stroke-linejoin="round" stroke-width="2"/>
    <line id="Line_8" data-name="Line 8" x2="4.714" transform="translate(11.903 20.28)" fill="none" stroke="#ec255a" stroke-linecap="round" stroke-linejoin="round" stroke-width="2"/>
    <line id="Line_9" data-name="Line 9" x2="4.714" transform="translate(9.546 26.172)" fill="none" stroke="#ec255a" stroke-linecap="round" stroke-linejoin="round" stroke-width="2"/>
    <line id="Line_10" data-name="Line 10" x2="2.357" transform="translate(26.044 26.172)" fill="none" stroke="#ec255a" stroke-linecap="round" stroke-linejoin="round" stroke-width="2"/>
    <line id="Line_11" data-name="Line 11" x2="2.357" transform="translate(26.044 20.28)" fill="none" stroke="#ec255a" stroke-linecap="round" stroke-linejoin="round" stroke-width="2"/>
  </g>
</svg>
