<svg xmlns="http://www.w3.org/2000/svg" width="224.2" height="14.4" viewBox="0 0 224.2 14.4">
  <g id="Group_1351" transform="translate(-56.7 -158.7)">
    <g id="Group_1379" data-name="Group 1379">
      <path id="Path_495" data-name="Path 495" d="M57.6,162.2a6.025,6.025,0,0,1,2.5-2.5,7.508,7.508,0,0,1,3.7-.9,6.866,6.866,0,0,1,4.3,1.3,6.436,6.436,0,0,1,2.4,3.6H66.7a3.039,3.039,0,0,0-1.2-1.3,3.57,3.57,0,0,0-4.4.6,4.7,4.7,0,0,0,0,5.8,3.467,3.467,0,0,0,2.6,1.1,3.323,3.323,0,0,0,3-1.8h3.8a6.436,6.436,0,0,1-2.4,3.6,6.866,6.866,0,0,1-4.3,1.3,7.508,7.508,0,0,1-3.7-.9,6.665,6.665,0,0,1-2.5-2.5,7.244,7.244,0,0,1-.9-3.7A7.786,7.786,0,0,1,57.6,162.2Z" fill="#161853"/>
      <path id="Path_496" data-name="Path 496" d="M79.6,173l-2.9-5.3h-.8V173H72.5V159h5.7a6.088,6.088,0,0,1,2.8.6,4.034,4.034,0,0,1,1.8,1.6,4.282,4.282,0,0,1,.6,2.2,4.228,4.228,0,0,1-3.1,4.1l3.2,5.6H79.6Zm-3.7-7.7H78a1.978,1.978,0,0,0,1.4-.5,1.728,1.728,0,0,0,.5-1.3,1.9,1.9,0,0,0-.5-1.3,1.978,1.978,0,0,0-1.4-.5H75.9Z" fill="#161853"/>
      <path id="Path_497" data-name="Path 497" d="M88.9,161.7v2.8h4.6v2.6H88.9v3.1h5.2v2.7H85.5v-14h8.6v2.7H88.9Z" fill="#161853"/>
      <path id="Path_498" data-name="Path 498" d="M105.1,170.5H99.9L99,173H95.4l5.1-14h4l5.1,14H106Zm-.9-2.6-1.7-5.1-1.7,5.1Z" fill="#161853"/>
      <path id="Path_499" data-name="Path 499" d="M121.2,159v2.7h-3.7V173H114V161.7h-3.7V159Z" fill="#161853"/>
      <path id="Path_500" data-name="Path 500" d="M126.3,161.7v2.8h4.6v2.6h-4.6v3.1h5.2v2.7h-8.6v-14h8.6v2.7h-5.2Z" fill="#161853"/>
      <path id="Path_501" data-name="Path 501" d="M148.1,159v2.7h-3.7V173H141V161.7h-3.7V159Z" fill="#161853"/>
      <path id="Path_502" data-name="Path 502" d="M161.9,159v14h-3.4v-5.8h-5.3V173h-3.4V159h3.4v5.5h5.3V159Z" fill="#161853"/>
      <path id="Path_503" data-name="Path 503" d="M167.8,161.7v2.8h4.6v2.6h-4.6v3.1H173v2.7h-8.6v-14H173v2.7h-5.2Z" fill="#161853"/>
      <path id="Path_504" data-name="Path 504" d="M189.6,165.7a3.778,3.778,0,0,1-1.7,1.6,6.235,6.235,0,0,1-2.9.6h-2.1v5h-3.4v-14H185a5.808,5.808,0,0,1,2.8.6,3.778,3.778,0,0,1,1.7,1.6,4.645,4.645,0,0,1,.6,2.3A3.574,3.574,0,0,1,189.6,165.7Zm-3.4-.9a1.94,1.94,0,0,0,0-2.6,2.07,2.07,0,0,0-1.5-.5h-1.9v3.5h1.9A2.076,2.076,0,0,0,186.2,164.8Z" fill="#161853"/>
      <path id="Path_505" data-name="Path 505" d="M199.1,173l-2.9-5.3h-.8V173H192V159h5.7a6.088,6.088,0,0,1,2.8.6,4.034,4.034,0,0,1,1.8,1.6,4.282,4.282,0,0,1,.6,2.2,4.228,4.228,0,0,1-3.1,4.1l3.2,5.6h-3.9Zm-3.7-7.7h2.1a1.978,1.978,0,0,0,1.4-.5,1.728,1.728,0,0,0,.5-1.3,1.9,1.9,0,0,0-.5-1.3,1.978,1.978,0,0,0-1.4-.5h-2.1Z" fill="#161853"/>
      <path id="Path_506" data-name="Path 506" d="M208,172.2a6.506,6.506,0,0,1-2.6-2.6,7.566,7.566,0,0,1-1-3.7,6.633,6.633,0,0,1,1-3.7,7.2,7.2,0,0,1,2.6-2.6,6.445,6.445,0,0,1,3.6-.9,7.4,7.4,0,0,1,3.6.9,6.506,6.506,0,0,1,2.6,2.6,7.508,7.508,0,0,1,.9,3.7,6.633,6.633,0,0,1-1,3.7,6.506,6.506,0,0,1-2.6,2.6,7.4,7.4,0,0,1-3.6.9A7.018,7.018,0,0,1,208,172.2Zm6.3-3.3a4.04,4.04,0,0,0,1-3,4.359,4.359,0,0,0-1-3,3.864,3.864,0,0,0-5.4,0,4.04,4.04,0,0,0-1,3,4.359,4.359,0,0,0,1,3,3.343,3.343,0,0,0,2.7,1.1A3.693,3.693,0,0,0,214.3,168.9Z" fill="#161853"/>
      <path id="Path_507" data-name="Path 507" d="M230.8,165.7a3.778,3.778,0,0,1-1.7,1.6,6.235,6.235,0,0,1-2.9.6h-2.1v5h-3.4v-14h5.5a5.808,5.808,0,0,1,2.8.6,3.335,3.335,0,0,1,1.7,1.6,4.645,4.645,0,0,1,.6,2.3A3.574,3.574,0,0,1,230.8,165.7Zm-3.4-.9a1.94,1.94,0,0,0,0-2.6,2.07,2.07,0,0,0-1.5-.5H224v3.5h1.9A2.076,2.076,0,0,0,227.4,164.8Z" fill="#161853"/>
      <path id="Path_508" data-name="Path 508" d="M236.6,161.7v2.8h4.6v2.6h-4.6v3.1h5.2v2.7h-8.6v-14h8.6v2.7h-5.2Z" fill="#161853"/>
      <path id="Path_509" data-name="Path 509" d="M251.2,173l-2.9-5.3h-.8V173H244V159h5.7a5.808,5.808,0,0,1,2.8.6,4.034,4.034,0,0,1,1.8,1.6,4.282,4.282,0,0,1,.6,2.2,4.228,4.228,0,0,1-3.1,4.1l3.2,5.6h-3.8Zm-3.8-7.7h2.1a1.978,1.978,0,0,0,1.4-.5,1.728,1.728,0,0,0,.5-1.3,1.9,1.9,0,0,0-.5-1.3,1.978,1.978,0,0,0-1.4-.5h-2.1Z" fill="#161853"/>
      <path id="Path_510" data-name="Path 510" d="M267.1,159v2.7h-3.7V173H260V161.7h-3.7V159Z" fill="#161853"/>
      <path id="Path_511" data-name="Path 511" d="M280.9,159l-4.9,9.4V173h-3.4v-4.6l-4.9-9.4h3.9l2.7,5.9L277,159Z" fill="#161853"/>
    </g>
    <g id="Component_2_10" transform="translate(213 160)">
      <g id="Ellipse_13">
        <g id="Group_1380" data-name="Group 1380">
          <circle id="Ellipse_132" data-name="Ellipse 132" cx="2" cy="2" r="2" fill="#ec255a"/>
        </g>
        <g id="Group_1381" data-name="Group 1381">
          <path id="Path_512" data-name="Path 512" d="M2,5A2.946,2.946,0,0,1-1,2,2.946,2.946,0,0,1,2-1,2.946,2.946,0,0,1,5,2,2.946,2.946,0,0,1,2,5ZM2,0A2,2,0,1,0,4,2,2.006,2.006,0,0,0,2,0Z" fill="#fff"/>
        </g>
      </g>
    </g>
  </g>
</svg>
