<svg xmlns="http://www.w3.org/2000/svg" width="325.1" height="21.2" viewBox="0 0 325.1 21.2">
  <g id="Group_486" transform="translate(-571 -301)">
    <g id="Group_1350">
      <g id="Group_1370" data-name="Group 1370">
        <path id="Path_457" data-name="Path 457" d="M572.3,306.4a9.846,9.846,0,0,1,3.6-3.7,10.167,10.167,0,0,1,5.3-1.3,9.941,9.941,0,0,1,6.2,1.9,9.518,9.518,0,0,1,3.5,5.2h-5.5a3.985,3.985,0,0,0-1.7-1.9,5.2,5.2,0,0,0-2.5-.7,4.573,4.573,0,0,0-3.7,1.6,7.3,7.3,0,0,0,0,8.6,4.573,4.573,0,0,0,3.7,1.6,4.3,4.3,0,0,0,2.5-.7,4.508,4.508,0,0,0,1.7-1.9h5.5a9.023,9.023,0,0,1-3.5,5.2,9.941,9.941,0,0,1-6.2,1.9,10.416,10.416,0,0,1-5.3-1.3,8.567,8.567,0,0,1-3.6-3.7,11.865,11.865,0,0,1,0-10.8Z" fill="#161853"/>
        <path id="Path_458" data-name="Path 458" d="M604.3,322l-4.2-7.7h-1.2V322h-5V301.6h8.3a9.979,9.979,0,0,1,4.1.8,5.615,5.615,0,0,1,2.5,2.3,6.216,6.216,0,0,1,.8,3.3,6.147,6.147,0,0,1-1.1,3.6,6.471,6.471,0,0,1-3.4,2.3l4.7,8.1h-5.5Zm-5.4-11.2H602a2.444,2.444,0,0,0,2-.7,2.352,2.352,0,0,0,.7-1.9,2.139,2.139,0,0,0-.7-1.8,3.011,3.011,0,0,0-2-.7h-3.1Z" fill="#161853"/>
        <path id="Path_459" data-name="Path 459" d="M617.8,305.6v4.1h6.6v3.8h-6.6V318h7.5v4H612.8V301.6h12.5v4Z" fill="#161853"/>
        <path id="Path_460" data-name="Path 460" d="M641.2,318.4h-7.6l-1.2,3.6h-5.2l7.4-20.4h5.7l7.4,20.4h-5.2Zm-1.3-3.8-2.5-7.5-2.5,7.5Z" fill="#161853"/>
        <path id="Path_461" data-name="Path 461" d="M664.5,301.6v4h-5.4V322h-5V305.6h-5.4v-4Z" fill="#161853"/>
        <path id="Path_462" data-name="Path 462" d="M672,305.6v4.1h6.6v3.8H672V318h7.5v4H667V301.6h12.5v4Z" fill="#161853"/>
        <path id="Path_463" data-name="Path 463" d="M703.5,301.6v4h-5.4V322h-5V305.6h-5.4v-4Z" fill="#161853"/>
        <path id="Path_464" data-name="Path 464" d="M723.6,301.6V322h-5v-8.4h-7.7V322h-5V301.6h5v8h7.7v-8Z" fill="#161853"/>
        <path id="Path_465" data-name="Path 465" d="M732.1,305.6v4.1h6.6v3.8h-6.6V318h7.5v4H727.1V301.6h12.5v4Z" fill="#161853"/>
        <path id="Path_466" data-name="Path 466" d="M763.7,311.4a5.812,5.812,0,0,1-2.5,2.4,8.712,8.712,0,0,1-4.2.9h-3V322h-5V301.6h8a9.979,9.979,0,0,1,4.1.8,5.615,5.615,0,0,1,2.5,2.3,6.346,6.346,0,0,1,.8,3.4A5.071,5.071,0,0,1,763.7,311.4Zm-4.9-1.3a2.352,2.352,0,0,0,.7-1.9,2.489,2.489,0,0,0-.7-1.9,3.3,3.3,0,0,0-2.1-.7H754v5.1h2.7A3.281,3.281,0,0,0,758.8,310.1Z" fill="#161853"/>
        <path id="Path_467" data-name="Path 467" d="M777.5,322l-4.2-7.7h-1.2V322h-5V301.6h8.3a9.979,9.979,0,0,1,4.1.8,5.615,5.615,0,0,1,2.5,2.3,6.216,6.216,0,0,1,.8,3.3,6.147,6.147,0,0,1-1.1,3.6,6.471,6.471,0,0,1-3.4,2.3L783,322h-5.5Zm-5.4-11.2h3.1a2.444,2.444,0,0,0,2-.7,2.352,2.352,0,0,0,.7-1.9,2.139,2.139,0,0,0-.7-1.8,3.011,3.011,0,0,0-2-.7h-3.1Z" fill="#161853"/>
        <path id="Path_468" data-name="Path 468" d="M790.4,320.9a9.658,9.658,0,0,1-3.8-3.7,11.114,11.114,0,0,1,0-10.8,9.659,9.659,0,0,1,3.8-3.7,10.416,10.416,0,0,1,5.3-1.3,10.674,10.674,0,0,1,5.3,1.3,9.658,9.658,0,0,1,3.8,3.7,11.114,11.114,0,0,1,0,10.8,9.659,9.659,0,0,1-3.8,3.7,10.3,10.3,0,0,1-5.2,1.3A10.538,10.538,0,0,1,790.4,320.9Zm9.1-4.8a6.913,6.913,0,0,0,0-8.6,4.987,4.987,0,0,0-3.9-1.6,4.849,4.849,0,0,0-3.9,1.6,6.913,6.913,0,0,0,0,8.6,5.553,5.553,0,0,0,7.8,0Z" fill="#161853"/>
        <path id="Path_469" data-name="Path 469" d="M823.5,311.4a5.812,5.812,0,0,1-2.5,2.4,8.712,8.712,0,0,1-4.2.9h-3.1V322h-5V301.6h8a9.979,9.979,0,0,1,4.1.8,5.615,5.615,0,0,1,2.5,2.3,6.346,6.346,0,0,1,.8,3.4A4.516,4.516,0,0,1,823.5,311.4Zm-4.9-1.3a2.352,2.352,0,0,0,.7-1.9,2.489,2.489,0,0,0-.7-1.9,3.3,3.3,0,0,0-2.1-.7h-2.7v5.1h2.7A3.281,3.281,0,0,0,818.6,310.1Z" fill="#161853"/>
        <path id="Path_470" data-name="Path 470" d="M831.9,305.6v4.1h6.6v3.8h-6.6V318h7.5v4H826.9V301.6h12.5v4Z" fill="#161853"/>
        <path id="Path_471" data-name="Path 471" d="M853,322l-4.2-7.7h-1.2V322h-5V301.6h8.3a9.979,9.979,0,0,1,4.1.8,5.111,5.111,0,0,1,2.5,2.3,6.216,6.216,0,0,1,.8,3.3,6.147,6.147,0,0,1-1.1,3.6,6.471,6.471,0,0,1-3.4,2.3l4.7,8.1H853Zm-5.4-11.2h3.1a2.444,2.444,0,0,0,2-.7,2.352,2.352,0,0,0,.7-1.9,2.139,2.139,0,0,0-.7-1.8,3.011,3.011,0,0,0-2-.7h-3.1Z" fill="#161853"/>
        <path id="Path_472" data-name="Path 472" d="M876.1,301.6v4h-5.4V322h-5V305.6h-5.4v-4Z" fill="#161853"/>
        <path id="Path_473" data-name="Path 473" d="M896.1,301.6l-7,13.6v6.7h-5v-6.7l-7-13.6h5.6l3.9,8.5,3.9-8.5Z" fill="#161853"/>
      </g>
      <g id="Component_2_31" transform="translate(799 303)">
        <g id="Ellipse_13">
          <g id="Group_1371" data-name="Group 1371">
            <circle id="Ellipse_129" data-name="Ellipse 129" cx="2.5" cy="2.5" r="2.5" fill="#ec255a"/>
          </g>
          <g id="Group_1372" data-name="Group 1372">
            <path id="Path_474" data-name="Path 474" d="M2.5,7A4.481,4.481,0,0,1-2,2.5,4.481,4.481,0,0,1,2.5-2,4.481,4.481,0,0,1,7,2.5,4.481,4.481,0,0,1,2.5,7Zm0-7A2.476,2.476,0,0,0,0,2.5,2.476,2.476,0,0,0,2.5,5,2.476,2.476,0,0,0,5,2.5,2.476,2.476,0,0,0,2.5,0Z" fill="#fff"/>
          </g>
        </g>
      </g>
    </g>
  </g>
</svg>
