<svg id="Group_722" data-name="Group 722" xmlns="http://www.w3.org/2000/svg" xmlns:xlink="http://www.w3.org/1999/xlink" width="19.359" height="23.669" viewBox="0 0 19.359 23.669">
  <defs>
    <clipPath id="clip-path">
      <rect id="Rectangle_292" data-name="Rectangle 292" width="19.359" height="23.669" fill="#161853"/>
    </clipPath>
  </defs>
  <g id="Group_722-2" data-name="Group 722" transform="translate(0 0)" clip-path="url(#clip-path)">
    <path id="Path_302" data-name="Path 302" d="M16.462,15.512c0-1.99,0-3.981,0-5.972a1.072,1.072,0,0,1,1.622-.949,1.1,1.1,0,0,1,.532,1.02q0,1.789,0,3.578c0,2.738.018,5.477-.006,8.215a4.106,4.106,0,0,1-2.292,3.778,3.955,3.955,0,0,1-1.912.466q-4.4.006-8.8,0a4.2,4.2,0,0,1-4.206-4.193c-.008-3.948,0-7.9,0-11.843a1.08,1.08,0,0,1,.622-1.064,1.017,1.017,0,0,1,1.134.136,1.086,1.086,0,0,1,.4.909q0,2.406,0,4.813,0,3.477,0,6.955A2.055,2.055,0,0,0,5.7,23.494h8.618a2.057,2.057,0,0,0,2.143-2.136V15.512" transform="translate(-0.329 -1.982)" fill="#161853"/>
    <path id="Path_303" data-name="Path 303" d="M19.357,4.237a1.081,1.081,0,0,0-1.14-1.008q-2-.007-4.007,0c-.187,0-.242-.044-.237-.236.013-.613.008-1.226,0-1.839A1.072,1.072,0,0,0,12.836,0Q9.686,0,6.536,0A1.071,1.071,0,0,0,5.385,1.149c0,.6-.014,1.209.006,1.813.007.234-.069.272-.281.271-1.318-.011-2.637-.007-3.955,0a1.094,1.094,0,0,0-1.094.73A1.075,1.075,0,0,0,1.123,5.38q4.271,0,8.542,0h4.811c1.26,0,2.52,0,3.78,0a1.071,1.071,0,0,0,1.1-1.144M11.791,3.168c-.138.184-.532.05-.812.057-.437.009-.873,0-1.31,0-.638,0-1.277-.008-1.915.005-.2,0-.245-.057-.232-.241a6.288,6.288,0,0,0,0-.679c0-.12.034-.158.155-.158q2,.006,4.005,0c.122,0,.159.04.155.158-.011.293.094.665-.048.855" transform="translate(0 0)" fill="#161853"/>
    <path id="Path_304" data-name="Path 304" d="M8.439,16.066c0-1.251,0-2.5,0-3.753a1.067,1.067,0,0,1,.884-1.045,1.082,1.082,0,0,1,1.163.607,1.255,1.255,0,0,1,.106.539q0,3.677,0,7.356a1.08,1.08,0,1,1-2.153,0q0-1.851,0-3.7" transform="translate(-1.983 -2.644)" fill="#161853"/>
    <path id="Path_305" data-name="Path 305" d="M16.212,16.1c0,1.251,0,2.5,0,3.753a1.072,1.072,0,0,1-2.086.357,1.268,1.268,0,0,1-.067-.421q0-3.7,0-7.407a1.078,1.078,0,0,1,2.033-.545,1.235,1.235,0,0,1,.122.584q0,1.839,0,3.679" transform="translate(-3.304 -2.645)" fill="#161853"/>
  </g>
</svg>
