<svg xmlns="http://www.w3.org/2000/svg" width="23.77" height="30.002" viewBox="0 0 23.77 30.002">
  <g id="Group_780" data-name="Group 780" transform="translate(-619 -634.998)">
    <g id="Group_433" data-name="Group 433" transform="translate(619 634.998)">
      <path id="Path_280" data-name="Path 280" d="M16.668.232A.726.726,0,0,0,16.146,0H4.442A3.959,3.959,0,0,0,.5,3.935V26.067A3.959,3.959,0,0,0,4.442,30H20.327a3.959,3.959,0,0,0,3.942-3.935V8.493a.78.78,0,0,0-.21-.507Zm.21,2.326,4.95,5.2H18.61a1.726,1.726,0,0,1-1.732-1.725Zm3.449,25.995H4.442a2.51,2.51,0,0,1-2.493-2.486V3.935A2.51,2.51,0,0,1,4.442,1.449H15.429v4.58A3.17,3.17,0,0,0,18.61,9.2h4.21V26.067A2.505,2.505,0,0,1,20.327,28.553Zm0,0" transform="translate(-0.5 0)" fill="#161853"/>
    </g>
    <path id="Path_283" data-name="Path 283" d="M9.355,4a.622.622,0,0,0-.622.622V10.55L6.108,7.923a.65.65,0,0,0-.918.919l3.673,3.677a.733.733,0,0,0,.984,0L13.52,8.842a.65.65,0,1,0-.918-.919L9.977,10.55V4.622A.622.622,0,0,0,9.355,4ZM5,14.576a.622.622,0,0,1,.622-.622h7.465a.622.622,0,0,1,0,1.244H5.622A.622.622,0,0,1,5,14.576Z" transform="translate(621.145 641.802)" fill="#161853"/>
  </g>
</svg>
