<svg xmlns="http://www.w3.org/2000/svg" width="15.94" height="17" viewBox="0 0 15.94 17">
  <g id="Group_596" data-name="Group 596" transform="translate(-420 -297.749)">
    <g id="Group_335" data-name="Group 335" transform="translate(422.064 298.249)">
      <path id="Path_276" data-name="Path 276" d="M3,13.683V15.93a.366.366,0,0,0,.369.369H5.616a.347.347,0,0,0,.259-.111l8.068-8.061L11.172,5.356,3.111,13.417A.363.363,0,0,0,3,13.683Zm13.085-7.7a.736.736,0,0,0,0-1.042L14.356,3.214a.736.736,0,0,0-1.042,0L11.963,4.566l2.771,2.771,1.352-1.352Z" transform="translate(-3 -2.997)" fill="none" stroke="#ec255a" stroke-width="1"/>
    </g>
    <line id="Line_44" data-name="Line 44" x2="14.865" transform="translate(420.5 314.249)" fill="none" stroke="#ec255a" stroke-linecap="round" stroke-width="1"/>
  </g>
</svg>
