<svg xmlns="http://www.w3.org/2000/svg" width="43.524" height="43.516" viewBox="0 0 43.524 43.516">
  <g id="Group_3" data-name="Group 3" transform="translate(0.75 0.76)">
    <path id="Path_179" data-name="Path 179" d="M4.167,41.153a4.183,4.183,0,0,1-2.94-1.188,4.034,4.034,0,0,1-.007-5.788l14.72-14.425a.325.325,0,1,1,.453.466L1.674,34.636A3.392,3.392,0,0,0,1.68,39.5a3.591,3.591,0,0,0,4.981,0L19.5,26.919a.325.325,0,1,1,.453.466L7.114,39.965A4.239,4.239,0,0,1,4.167,41.153ZM25.431,21.885a.318.318,0,0,1-.23-.1.323.323,0,0,1,.007-.459l3.826-3.747a.317.317,0,0,1,.335-.072,9.059,9.059,0,0,0,9.385-2,8.64,8.64,0,0,0,2.573-6.937l-4.66,4.568a.321.321,0,0,1-.453,0L28.607,5.695a.317.317,0,0,1,0-.459L33.254.687a9.064,9.064,0,0,0-7.081,2.52,8.6,8.6,0,0,0-2.041,9.175.329.329,0,0,1-.079.348l-5.7,5.591a.325.325,0,1,1-.453-.466l5.559-5.441a9.263,9.263,0,0,1,2.271-9.667A9.7,9.7,0,0,1,34.015.136a.329.329,0,0,1,.256.223.309.309,0,0,1-.085.328L29.3,5.478l7.14,6.989,4.9-4.8a.321.321,0,0,1,.545.177A9.294,9.294,0,0,1,39.2,15.985,9.691,9.691,0,0,1,29.336,18.2l-3.682,3.61A.384.384,0,0,1,25.431,21.885Z" transform="translate(0 0)" fill="#161853" stroke="#161853" stroke-width="1.5"/>
    <path id="Path_180" data-name="Path 180" d="M20.7,25.921a.353.353,0,0,1-.23-.092L9.232,14.817,5.15,13.143a.324.324,0,0,1-.158-.138L2.19,8.024a.327.327,0,0,1,.059-.387L4.323,5.609A.319.319,0,0,1,4.7,5.55l5.08,2.743a.307.307,0,0,1,.144.158l1.706,4L22.876,23.453a.325.325,0,1,1-.453.466L11.135,12.868a.375.375,0,0,1-.072-.105L9.376,8.805,4.605,6.233,2.879,7.926,5.5,12.585l4.036,1.66a.353.353,0,0,1,.105.066L20.92,25.37a.318.318,0,0,1-.223.551ZM36.966,43.9a4.4,4.4,0,0,1-3.084-1.247l-8.5-8.328a5.931,5.931,0,0,1-1.779-4.64l-.991-.971a.325.325,0,0,1,.453-.466l1.1,1.076a.323.323,0,0,1,.1.263,5.26,5.26,0,0,0,1.575,4.272l8.505,8.328a3.782,3.782,0,0,0,5.263,0,3.582,3.582,0,0,0,0-5.132l-8.512-8.328a5.507,5.507,0,0,0-4.279-1.549.326.326,0,0,1-.243-.085l-1.188-1.083a.323.323,0,0,1-.02-.459.329.329,0,0,1,.459-.02l1.089.991a6.176,6.176,0,0,1,4.64,1.739l8.5,8.335a4.216,4.216,0,0,1,0,6.051A4.365,4.365,0,0,1,36.966,43.9Z" transform="translate(-0.74 -1.89)" fill="#161853" stroke="#161853" stroke-width="1.5"/>
    <path id="Path_181" data-name="Path 181" d="M30.035,38.527a.865.865,0,0,1-.6-.243l-1.785-1.752a.825.825,0,0,1,0-1.194L32.6,30.481a.856.856,0,0,1,1.2,0l1.785,1.752a.825.825,0,0,1,0,1.194h0l-4.955,4.856A.817.817,0,0,1,30.035,38.527Zm3.17-7.646a.219.219,0,0,0-.151.059L28.092,35.8a.19.19,0,0,0,0,.276l1.785,1.752a.222.222,0,0,0,.3,0l4.961-4.856a.19.19,0,0,0,0-.276L33.356,30.94A.208.208,0,0,0,33.2,30.881ZM35.37,33.2Z" transform="translate(-9.415 -10.388)" fill="#161853" stroke="#161853" stroke-width="1.5"/>
  </g>
</svg>
