<svg xmlns="http://www.w3.org/2000/svg" width="43.292" height="46.056" viewBox="0 0 43.292 46.056">
  <g id="Group_485" data-name="Group 485" transform="translate(-784.324 -442.473)">
    <g id="Group_314" data-name="Group 314" transform="translate(784.324 442.473)">
      <path id="Path_210" data-name="Path 210" d="M49.371,19.448H7.921A.921.921,0,0,1,7,18.527V16.684a.921.921,0,0,1,.258-.645l2.69-2.763A.921.921,0,0,1,10.611,13H44a.921.921,0,0,1,.424.1l5.37,2.763a.921.921,0,0,1,.5.82v1.842A.921.921,0,0,1,49.371,19.448ZM8.842,17.606H48.45v-.359l-4.67-2.4H11l-2.155,2.22Z" transform="translate(-7 -7.473)" fill="#ec255a"/>
      <path id="Path_211" data-name="Path 211" d="M20.374,14.369H14.921A.921.921,0,0,1,14,13.448V7.921A.921.921,0,0,1,14.921,7h1.842a.921.921,0,0,1,.774.415l3.611,5.527a.971.971,0,0,1-.774,1.428Zm-4.532-1.842H18.67l-2.4-3.684h-.424ZM20.448,48.45H14.921A.921.921,0,0,1,14,47.529V18.053a.921.921,0,0,1,.921-.921h5.527a.921.921,0,0,1,.921.921V47.529A.921.921,0,0,1,20.448,48.45Zm-4.606-1.842h3.684V18.975H15.842Z" transform="translate(-7.552 -7)" fill="#ec255a"/>
      <path id="Path_215" data-name="Path 215" d="M22.975,57.088H11.921A.921.921,0,0,1,11,56.167V51.561a.921.921,0,0,1,.921-.921H22.975a.921.921,0,0,1,.921.921v4.606A.921.921,0,0,1,22.975,57.088ZM12.842,55.246h9.211V52.482H12.842Z" transform="translate(-7.316 -11.032)" fill="#ec255a"/>
      <path id="Path_216" data-name="Path 216" d="M14.921,50.369a.921.921,0,0,1-.654-1.575l5.527-5.527A.925.925,0,0,1,21.1,44.575L15.575,50.1A.921.921,0,0,1,14.921,50.369Z" transform="translate(-7.552 -9.839)" fill="#ec255a"/>
      <path id="Path_217" data-name="Path 217" d="M20.447,44.369a.921.921,0,0,1-.654-.267l-5.527-5.527a.925.925,0,0,1,1.308-1.308L21.1,42.794a.921.921,0,0,1-.654,1.575Z" transform="translate(-7.552 -9.366)" fill="#ec255a"/>
      <path id="Path_218" data-name="Path 218" d="M14.921,37.422a.921.921,0,0,1-.654-1.575l5.527-5.527A.925.925,0,0,1,21.1,31.628l-5.527,5.527A.921.921,0,0,1,14.921,37.422Zm0-11.053a.921.921,0,0,1-.654-1.575l5.527-5.527A.925.925,0,1,1,21.1,20.575L15.575,26.1A.921.921,0,0,1,14.921,26.369Z" transform="translate(-7.552 -7.946)" fill="#ec255a"/>
      <path id="Path_219" data-name="Path 219" d="M20.447,32.369a.921.921,0,0,1-.654-.267l-5.527-5.527a.925.925,0,0,1,1.308-1.308L21.1,30.794a.921.921,0,0,1-.654,1.575Z" transform="translate(-7.552 -8.42)" fill="#ec255a"/>
    </g>
    <g id="Group_315" data-name="Group 315" transform="translate(818.112 453.398)">
      <g id="XMLID_1705_" transform="translate(2.033 0)">
        <path id="XMLID_1992_" d="M7.56,8.141a.381.381,0,0,1-.294-.09L5.794,6.7A1.271,1.271,0,0,1,5.5,5.883V2.9c0-.542.2-.9.49-.9H8.982c.294,0,.49.361.49.9v3.07a1.487,1.487,0,0,1-.147.632l-.441.452L8.05,7.87Z" transform="translate(-5.5 -2)" fill="none" stroke="#ec255a" stroke-width="1.5"/>
      </g>
      <path id="Path_220" data-name="Path 220" d="M10.767,9v.993a3.456,3.456,0,0,1,2.438,3.522,3.7,3.7,0,0,1-7.405,0c0-.181,0-.452.181-.542a3.625,3.625,0,0,0,3.341,2.348,1.811,1.811,0,0,0,1.806-1.806A1.614,1.614,0,0,0,9.5,11.709c-.542,0-.722-.361-.722-.9V9" transform="translate(-5.8 -2.679)" fill="none" stroke="#ec255a" stroke-linecap="round" stroke-linejoin="round" stroke-width="1.5"/>
    </g>
  </g>
</svg>
