<svg xmlns="http://www.w3.org/2000/svg" width="20" height="14.707" viewBox="0 0 20 14.707">
  <g id="Group_758" data-name="Group 758" transform="translate(-0.725 -9.681)">
    <g id="Group_757" data-name="Group 757">
      <path id="Path_290" data-name="Path 290" d="M10.725,22.534c5.37,0,9.62-5.286,9.8-5.511l.2-.256-.2-.256c-.178-.225-4.428-5.511-9.8-5.511s-9.62,5.286-9.8,5.511l-.2.256.2.256C1.105,17.248,5.355,22.534,10.725,22.534Zm0-10.71c4.323,0,8.02,3.9,8.935,4.943-.913,1.047-4.606,4.943-8.935,4.943s-8.02-3.9-8.935-4.943C2.7,15.72,6.4,11.824,10.725,11.824Z" fill="#ec255a"/>
      <path id="Path_291" data-name="Path 291" d="M19.707,23.415A3.707,3.707,0,1,0,16,19.707,3.712,3.712,0,0,0,19.707,23.415Zm0-6.591a2.884,2.884,0,1,1-2.884,2.884A2.887,2.887,0,0,1,19.707,16.824Z" transform="translate(-8.982 -2.94)" fill="#ec255a"/>
    </g>
    <line id="Line_70" data-name="Line 70" x1="14" y2="14" transform="translate(4.225 10.034)" fill="none" stroke="#ec255a" stroke-width="1"/>
  </g>
</svg>
