<svg xmlns="http://www.w3.org/2000/svg" width="91.6" height="20.8" viewBox="0 0 91.6 20.8">
  <g id="x" transform="translate(-571.8 -300.4)">
    <g id="Group_1159">
      <g id="Group_1373" data-name="Group 1373">
        <path id="Path_475" data-name="Path 475" d="M576.8,317.2h6.5V321H571.8V300.6h5Z" fill="#161853"/>
        <path id="Path_476" data-name="Path 476" d="M590,319.9a9.658,9.658,0,0,1-3.8-3.7,11.114,11.114,0,0,1,0-10.8,9.659,9.659,0,0,1,3.8-3.7,10.416,10.416,0,0,1,5.3-1.3,10.674,10.674,0,0,1,5.3,1.3,9.658,9.658,0,0,1,3.8,3.7,11.114,11.114,0,0,1,0,10.8,9.659,9.659,0,0,1-3.8,3.7,10.3,10.3,0,0,1-5.2,1.3A10.538,10.538,0,0,1,590,319.9Zm9.2-4.8a6.913,6.913,0,0,0,0-8.6,4.987,4.987,0,0,0-3.9-1.6,4.849,4.849,0,0,0-3.9,1.6,6.913,6.913,0,0,0,0,8.6,4.987,4.987,0,0,0,3.9,1.6A5.349,5.349,0,0,0,599.2,315.1Z" fill="#161853"/>
        <path id="Path_477" data-name="Path 477" d="M621.9,307.1a4.1,4.1,0,0,0-1.6-1.6,4.709,4.709,0,0,0-2.4-.5,4.987,4.987,0,0,0-3.9,1.6,6,6,0,0,0-1.5,4.2,6.178,6.178,0,0,0,1.5,4.4,6.087,6.087,0,0,0,7.3.7,4.816,4.816,0,0,0,1.8-2.7H617v-3.7h10.8v4.6a10.935,10.935,0,0,1-1.9,3.5,10.578,10.578,0,0,1-3.3,2.6,9.736,9.736,0,0,1-4.6,1,10.792,10.792,0,0,1-5.4-1.3,9.4,9.4,0,0,1-3.7-3.7,11.865,11.865,0,0,1,0-10.8,9.4,9.4,0,0,1,3.7-3.7,10.792,10.792,0,0,1,5.4-1.3,10.548,10.548,0,0,1,6.2,1.8,8.046,8.046,0,0,1,3.3,4.9Z" fill="#161853"/>
        <path id="Path_478" data-name="Path 478" d="M641.6,300.6V321h-5V300.6Z" fill="#161853"/>
        <path id="Path_479" data-name="Path 479" d="M663.4,321h-5l-8.3-12.6V321h-5V300.6h5l8.3,12.6V300.6h5Z" fill="#161853"/>
      </g>
      <g id="Component_2_25" transform="translate(598 303)">
        <g id="Ellipse_13">
          <g id="Group_1374" data-name="Group 1374">
            <circle id="Ellipse_130" data-name="Ellipse 130" cx="2.5" cy="2.5" r="2.5" fill="#ec255a"/>
          </g>
          <g id="Group_1375" data-name="Group 1375">
            <path id="Path_480" data-name="Path 480" d="M2.5,7A4.481,4.481,0,0,1-2,2.5,4.481,4.481,0,0,1,2.5-2,4.481,4.481,0,0,1,7,2.5,4.481,4.481,0,0,1,2.5,7Zm0-7A2.476,2.476,0,0,0,0,2.5,2.476,2.476,0,0,0,2.5,5,2.476,2.476,0,0,0,5,2.5,2.476,2.476,0,0,0,2.5,0Z" fill="#fff"/>
          </g>
        </g>
      </g>
    </g>
  </g>
</svg>
