<svg xmlns="http://www.w3.org/2000/svg" width="42.566" height="42.566" viewBox="0 0 42.566 42.566">
  <g id="Group_483" data-name="Group 483" transform="translate(-785.05 -596.049)">
    <g id="Group_284" data-name="Group 284" transform="translate(785.05 635.955)">
      <path id="Path_188" data-name="Path 188" d="M41.236,32.66H1.33a1.33,1.33,0,0,1,0-2.66H41.236a1.33,1.33,0,0,1,0,2.66Z" transform="translate(0 -30)" fill="#161853"/>
    </g>
    <g id="Group_285" data-name="Group 285" transform="translate(787.667 596.049)">
      <path id="Path_189" data-name="Path 189" d="M22.487,42.566H3.3a1.33,1.33,0,0,1-1.33-1.33V1.33A1.33,1.33,0,0,1,3.3,0h19.19a1.33,1.33,0,0,1,1.33,1.33V41.236A1.33,1.33,0,0,1,22.487,42.566Zm-17.86-2.66H21.157V2.66H4.628Z" transform="translate(-1.967)" fill="#161853"/>
    </g>
    <g id="Group_286" data-name="Group 286" transform="translate(806.857 609.678)">
      <path id="Path_190" data-name="Path 190" d="M33.206,39.183H17.724a1.33,1.33,0,0,1-1.33-1.33V11.576a1.33,1.33,0,0,1,1.33-1.33H33.206a1.33,1.33,0,0,1,1.33,1.33V37.853A1.33,1.33,0,0,1,33.206,39.183Zm-14.152-2.66H31.876V12.906H19.054Z" transform="translate(-16.394 -10.246)" fill="#161853"/>
    </g>
    <g id="Group_287" data-name="Group 287" transform="translate(793.271 622.817)">
      <path id="Path_191" data-name="Path 191" d="M15.492,35.922H7.51a1.33,1.33,0,0,1-1.33-1.33V21.453a1.33,1.33,0,0,1,1.33-1.33h7.981a1.33,1.33,0,0,1,1.33,1.33V34.592A1.33,1.33,0,0,1,15.492,35.922Zm-6.651-2.66h5.321V22.783H8.841Z" transform="translate(-6.18 -20.123)" fill="#161853"/>
    </g>
    <g id="Group_291" data-name="Group 291" transform="translate(811.937 616.002)">
      <g id="Group_288" data-name="Group 288">
        <path id="Path_192" data-name="Path 192" d="M26.864,17.66H21.543a1.33,1.33,0,0,1,0-2.66h5.321a1.33,1.33,0,1,1,0,2.66Z" transform="translate(-20.213 -15)" fill="#161853"/>
      </g>
      <g id="Group_289" data-name="Group 289" transform="translate(0 6.815)">
        <path id="Path_193" data-name="Path 193" d="M26.864,22.783H21.543a1.33,1.33,0,0,1,0-2.66h5.321a1.33,1.33,0,1,1,0,2.66Z" transform="translate(-20.213 -20.123)" fill="#161853"/>
      </g>
      <g id="Group_290" data-name="Group 290" transform="translate(0 13.629)">
        <path id="Path_194" data-name="Path 194" d="M26.864,27.907H21.543a1.33,1.33,0,0,1,0-2.66h5.321a1.33,1.33,0,0,1,0,2.66Z" transform="translate(-20.213 -25.246)" fill="#161853"/>
      </g>
    </g>
    <g id="Group_295" data-name="Group 295" transform="translate(793.271 602.372)">
      <g id="Group_292" data-name="Group 292">
        <path id="Path_195" data-name="Path 195" d="M15.492,7.414H7.51a1.33,1.33,0,0,1,0-2.66h7.981a1.33,1.33,0,0,1,0,2.66Z" transform="translate(-6.18 -4.754)" fill="#161853"/>
      </g>
      <g id="Group_293" data-name="Group 293" transform="translate(0 6.815)">
        <path id="Path_196" data-name="Path 196" d="M15.492,12.537H7.51a1.33,1.33,0,0,1,0-2.66h7.981a1.33,1.33,0,0,1,0,2.66Z" transform="translate(-6.18 -9.877)" fill="#161853"/>
      </g>
      <g id="Group_294" data-name="Group 294" transform="translate(0 13.629)">
        <path id="Path_197" data-name="Path 197" d="M15.492,17.66H7.51a1.33,1.33,0,0,1,0-2.66h7.981a1.33,1.33,0,0,1,0,2.66Z" transform="translate(-6.18 -15)" fill="#161853"/>
      </g>
    </g>
  </g>
</svg>
