<svg xmlns="http://www.w3.org/2000/svg" width="257" height="22.4" viewBox="0 0 257 22.4">
  <g id="Group_437" transform="translate(-571.8 -299)">
    <g id="Group_1159">
      <g id="Group_1376" data-name="Group 1376">
        <path id="Path_481" data-name="Path 481" d="M582.2,321l-4.2-7.7h-1.2V321h-5V300.6h8.3a9.979,9.979,0,0,1,4.1.8,5.615,5.615,0,0,1,2.5,2.3,6.216,6.216,0,0,1,.8,3.3,6.147,6.147,0,0,1-1.1,3.6,6.471,6.471,0,0,1-3.4,2.3l4.7,8.1h-5.5Zm-5.4-11.2h3.1a2.444,2.444,0,0,0,2-.7,2.352,2.352,0,0,0,.7-1.9,2.139,2.139,0,0,0-.7-1.8,3.011,3.011,0,0,0-2-.7h-3.1Z" fill="#161853"/>
        <path id="Path_482" data-name="Path 482" d="M595.7,304.6v4.1h6.6v3.8h-6.6V317h7.5v4H590.7V300.6h12.5v4Z" fill="#161853"/>
        <path id="Path_483" data-name="Path 483" d="M609.8,320.5a6.7,6.7,0,0,1-2.8-2.1,5.536,5.536,0,0,1-1.1-3.4h5.3a2.3,2.3,0,0,0,.8,1.7,2.523,2.523,0,0,0,1.7.6,2.86,2.86,0,0,0,1.7-.5,1.678,1.678,0,0,0,.6-1.4,1.656,1.656,0,0,0-.5-1.2,5.024,5.024,0,0,0-1.2-.8,12.724,12.724,0,0,0-2.1-.7,21.973,21.973,0,0,1-3.2-1.2,5.954,5.954,0,0,1-2.1-1.8,4.964,4.964,0,0,1-.9-3.1,5.415,5.415,0,0,1,2.1-4.5,9.913,9.913,0,0,1,10.8,0,5.787,5.787,0,0,1,2.2,4.5h-5.4a2.175,2.175,0,0,0-.7-1.6,2.352,2.352,0,0,0-1.7-.6,1.978,1.978,0,0,0-1.4.5,1.678,1.678,0,0,0-.6,1.4,1.551,1.551,0,0,0,.9,1.5,12.027,12.027,0,0,0,2.9,1.2,20.954,20.954,0,0,1,3.2,1.3,5.954,5.954,0,0,1,2.1,1.8,4.86,4.86,0,0,1,.9,3,5.948,5.948,0,0,1-.9,3.2,6.553,6.553,0,0,1-2.6,2.3,8.173,8.173,0,0,1-4,.8A14.745,14.745,0,0,1,609.8,320.5Z" fill="#161853"/>
        <path id="Path_484" data-name="Path 484" d="M629.2,304.6v4.1h6.6v3.8h-6.6V317h7.5v4H624.2V300.6h12.5v4Z" fill="#161853"/>
        <path id="Path_485" data-name="Path 485" d="M654.6,300.6v4h-5.4V321h-5V304.6h-5.4v-4Z" fill="#161853"/>
        <path id="Path_486" data-name="Path 486" d="M677.9,310.4a5.812,5.812,0,0,1-2.5,2.4,8.712,8.712,0,0,1-4.2.9h-3.1V321h-5V300.6h8a9.979,9.979,0,0,1,4.1.8,5.615,5.615,0,0,1,2.5,2.3,6.346,6.346,0,0,1,.8,3.4A5.058,5.058,0,0,1,677.9,310.4Zm-4.9-1.3a2.352,2.352,0,0,0,.7-1.9,2.489,2.489,0,0,0-.7-1.9,3.3,3.3,0,0,0-2.1-.7h-2.7v5.1h2.7A3.281,3.281,0,0,0,673,309.1Z" fill="#161853"/>
        <path id="Path_487" data-name="Path 487" d="M694,317.4h-7.6l-1.2,3.6H680l7.4-20.4h5.7l7.4,20.4h-5.2Zm-1.3-3.8-2.5-7.5-2.5,7.5Z" fill="#161853"/>
        <path id="Path_488" data-name="Path 488" d="M706,320.5a6.7,6.7,0,0,1-2.8-2.1,5.536,5.536,0,0,1-1.1-3.4h5.3a2.3,2.3,0,0,0,.8,1.7,2.352,2.352,0,0,0,1.7.6,2.86,2.86,0,0,0,1.7-.5,1.678,1.678,0,0,0,.6-1.4,1.656,1.656,0,0,0-.5-1.2,5.024,5.024,0,0,0-1.2-.8,12.724,12.724,0,0,0-2.1-.7,21.973,21.973,0,0,1-3.2-1.2,5.954,5.954,0,0,1-2.1-1.8,4.964,4.964,0,0,1-.9-3.1,5.415,5.415,0,0,1,2.1-4.5,9.913,9.913,0,0,1,10.8,0,5.787,5.787,0,0,1,2.2,4.5h-5.4a2.175,2.175,0,0,0-.7-1.6,2.352,2.352,0,0,0-1.7-.6,1.978,1.978,0,0,0-1.4.5,1.678,1.678,0,0,0-.6,1.4,1.551,1.551,0,0,0,.9,1.5,12.027,12.027,0,0,0,2.9,1.2,20.954,20.954,0,0,1,3.2,1.3,5.954,5.954,0,0,1,2.1,1.8,4.86,4.86,0,0,1,.9,3,5.948,5.948,0,0,1-.9,3.2,6.553,6.553,0,0,1-2.6,2.3,8.423,8.423,0,0,1-4,.8A15.667,15.667,0,0,1,706,320.5Z" fill="#161853"/>
        <path id="Path_489" data-name="Path 489" d="M723.9,320.5a6.7,6.7,0,0,1-2.8-2.1A5.536,5.536,0,0,1,720,315h5.3a2.3,2.3,0,0,0,.8,1.7,2.523,2.523,0,0,0,1.7.6,2.86,2.86,0,0,0,1.7-.5,1.678,1.678,0,0,0,.6-1.4,1.656,1.656,0,0,0-.5-1.2,5.024,5.024,0,0,0-1.2-.8,12.724,12.724,0,0,0-2.1-.7,21.973,21.973,0,0,1-3.2-1.2,5.954,5.954,0,0,1-2.1-1.8,4.964,4.964,0,0,1-.9-3.1,5.415,5.415,0,0,1,2.1-4.5,9.913,9.913,0,0,1,10.8,0,5.787,5.787,0,0,1,2.2,4.5h-5.4a2.175,2.175,0,0,0-.7-1.6,2.352,2.352,0,0,0-1.7-.6,2.456,2.456,0,0,0-1.5.5,1.678,1.678,0,0,0-.6,1.4,1.551,1.551,0,0,0,.9,1.5,12.027,12.027,0,0,0,2.9,1.2,20.954,20.954,0,0,1,3.2,1.3,5.954,5.954,0,0,1,2.1,1.8,4.86,4.86,0,0,1,.9,3,5.948,5.948,0,0,1-.9,3.2,6.553,6.553,0,0,1-2.6,2.3,8.173,8.173,0,0,1-4,.8A15.883,15.883,0,0,1,723.9,320.5Z" fill="#161853"/>
        <path id="Path_490" data-name="Path 490" d="M766.4,300.6,761,321h-6l-3.2-13.4L748.4,321h-6l-5.2-20.4h5.3l2.9,14.8,3.6-14.8h5.5l3.5,14.8,3-14.8Z" fill="#161853"/>
        <path id="Path_491" data-name="Path 491" d="M773.2,319.9a9.658,9.658,0,0,1-3.8-3.7,11.114,11.114,0,0,1,0-10.8,9.659,9.659,0,0,1,3.8-3.7,10.416,10.416,0,0,1,5.3-1.3,10.674,10.674,0,0,1,5.3,1.3,9.658,9.658,0,0,1,3.8,3.7,11.114,11.114,0,0,1,0,10.8,9.659,9.659,0,0,1-3.8,3.7,10.3,10.3,0,0,1-5.2,1.3A10.792,10.792,0,0,1,773.2,319.9Zm9.2-4.8a6.913,6.913,0,0,0,0-8.6,4.987,4.987,0,0,0-3.9-1.6,4.849,4.849,0,0,0-3.9,1.6,6.913,6.913,0,0,0,0,8.6,4.987,4.987,0,0,0,3.9,1.6A5.349,5.349,0,0,0,782.4,315.1Z" fill="#161853"/>
        <path id="Path_492" data-name="Path 492" d="M802,321l-4.2-7.7h-1.2V321h-5V300.6h8.3a9.979,9.979,0,0,1,4.1.8,5.111,5.111,0,0,1,2.5,2.3,6.216,6.216,0,0,1,.8,3.3,6.147,6.147,0,0,1-1.1,3.6,6.471,6.471,0,0,1-3.4,2.3l4.7,8.1H802Zm-5.4-11.2h3.1a2.444,2.444,0,0,0,2-.7,2.352,2.352,0,0,0,.7-1.9,2.139,2.139,0,0,0-.7-1.8,3.011,3.011,0,0,0-2-.7h-3.1Z" fill="#161853"/>
        <path id="Path_493" data-name="Path 493" d="M823.8,301.9a9.16,9.16,0,0,1,3.7,3.6,11.454,11.454,0,0,1,0,10.6,9.846,9.846,0,0,1-3.7,3.6,11.3,11.3,0,0,1-5.6,1.3h-7.6V300.6h7.6A12.494,12.494,0,0,1,823.8,301.9Zm-1.6,13.3a6.056,6.056,0,0,0,1.6-4.4,5.536,5.536,0,0,0-6-6h-2.3v11.8h2.3A5.592,5.592,0,0,0,822.2,315.2Z" fill="#161853"/>
      </g>
      <g id="Component_2_26" transform="translate(780 301)">
        <g id="Ellipse_13">
          <g id="Group_1377" data-name="Group 1377">
            <circle id="Ellipse_131" data-name="Ellipse 131" cx="2.5" cy="2.5" r="2.5" fill="#ec255a"/>
          </g>
          <g id="Group_1378" data-name="Group 1378">
            <path id="Path_494" data-name="Path 494" d="M2.5,7A4.481,4.481,0,0,1-2,2.5,4.481,4.481,0,0,1,2.5-2,4.481,4.481,0,0,1,7,2.5,4.481,4.481,0,0,1,2.5,7Zm0-7A2.476,2.476,0,0,0,0,2.5,2.476,2.476,0,0,0,2.5,5,2.476,2.476,0,0,0,5,2.5,2.476,2.476,0,0,0,2.5,0Z" fill="#fff"/>
          </g>
        </g>
      </g>
    </g>
  </g>
</svg>
