<svg xmlns="http://www.w3.org/2000/svg" width="177.3" height="14.5" viewBox="0 0 177.3 14.5">
  <g id="reset_password" data-name="reset password" transform="translate(-1.2 -6.6)">
    <g id="Group_1395" data-name="Group 1395">
      <path id="Path_545" data-name="Path 545" d="M8.4,21,5.5,15.7H4.7V21H1.2V7H7a6.088,6.088,0,0,1,2.8.6,4.034,4.034,0,0,1,1.8,1.6,4.282,4.282,0,0,1,.6,2.2,4.228,4.228,0,0,1-3.1,4.1l3.2,5.6H8.4ZM4.7,13.3H6.8a1.978,1.978,0,0,0,1.4-.5,1.728,1.728,0,0,0,.5-1.3,1.9,1.9,0,0,0-.5-1.3,2.588,2.588,0,0,0-1.4-.4H4.7Z" fill="#161853"/>
      <path id="Path_546" data-name="Path 546" d="M17.7,9.7v2.8h4.6v2.6H17.7v3.1h5.2V21H14.3V7h8.6V9.7Z" fill="#161853"/>
      <path id="Path_547" data-name="Path 547" d="M27.4,20.6a4.26,4.26,0,0,1-2-1.5,4.577,4.577,0,0,1-.8-2.4h3.6a2.2,2.2,0,0,0,.5,1.2,2,2,0,0,0,2.4,0,1.159,1.159,0,0,0,.4-1,1.222,1.222,0,0,0-.4-.9,3.49,3.49,0,0,0-.9-.6c-.3-.1-.8-.3-1.4-.5-.9-.3-1.6-.6-2.2-.8a4.428,4.428,0,0,1-1.5-1.2,3.48,3.48,0,0,1-.6-2.1,3.95,3.95,0,0,1,1.4-3.1,5.449,5.449,0,0,1,3.7-1.1,6.027,6.027,0,0,1,3.7,1.1,3.887,3.887,0,0,1,1.5,3.1H31.1a1.433,1.433,0,0,0-.5-1.1,1.594,1.594,0,0,0-1.2-.4,1.689,1.689,0,0,0-1,.3,1.053,1.053,0,0,0-.4,1,1.255,1.255,0,0,0,.6,1.1,8.148,8.148,0,0,0,2,.8,16.475,16.475,0,0,1,2.2.9,4.428,4.428,0,0,1,1.5,1.2,3.281,3.281,0,0,1,.6,2.1,4.282,4.282,0,0,1-.6,2.2,4.034,4.034,0,0,1-1.8,1.6,5.954,5.954,0,0,1-2.7.6A5.736,5.736,0,0,1,27.4,20.6Z" fill="#161853"/>
      <path id="Path_548" data-name="Path 548" d="M40.8,9.7v2.8h4.6v2.6H40.8v3.1H46V21H37.4V7H46V9.7Z" fill="#161853"/>
      <path id="Path_549" data-name="Path 549" d="M58.3,7V9.7H54.6V21H51.2V9.7H47.5V7Z" fill="#161853"/>
      <path id="Path_550" data-name="Path 550" d="M74.4,13.7a3.778,3.778,0,0,1-1.7,1.6,5.2,5.2,0,0,1-2.9.7H67.7v5H64.3V7h5.5a5.808,5.808,0,0,1,2.8.6,3.335,3.335,0,0,1,1.7,1.6,4.645,4.645,0,0,1,.6,2.3A3.424,3.424,0,0,1,74.4,13.7ZM71,12.8a1.727,1.727,0,0,0,.5-1.3,1.727,1.727,0,0,0-.5-1.3,2.07,2.07,0,0,0-1.5-.5H67.6v3.5h1.9A2.076,2.076,0,0,0,71,12.8Z" fill="#161853"/>
      <path id="Path_551" data-name="Path 551" d="M85.5,18.5H80.3L79.4,21H75.8L80.9,7h4L90,21H86.4Zm-.9-2.6-1.7-5.1-1.7,5.1Z" fill="#161853"/>
      <path id="Path_552" data-name="Path 552" d="M93.8,20.6a4.26,4.26,0,0,1-2-1.5,4.577,4.577,0,0,1-.8-2.4h3.6a2.195,2.195,0,0,0,.5,1.2,2,2,0,0,0,2.4,0,1.284,1.284,0,0,0,.4-1,1.222,1.222,0,0,0-.4-.9,3.49,3.49,0,0,0-.9-.6,10.865,10.865,0,0,0-1.4-.5c-.9-.3-1.6-.6-2.2-.8a4.428,4.428,0,0,1-1.5-1.2,3.48,3.48,0,0,1-.6-2.1,3.95,3.95,0,0,1,1.4-3.1,6.773,6.773,0,0,1,7.4,0,3.887,3.887,0,0,1,1.5,3.1H97.5A1.433,1.433,0,0,0,97,9.7a1.594,1.594,0,0,0-1.2-.4,1.689,1.689,0,0,0-1,.3,1.053,1.053,0,0,0-.4,1,1.255,1.255,0,0,0,.6,1.1,8.148,8.148,0,0,0,2,.8,16.474,16.474,0,0,1,2.2.9,4.428,4.428,0,0,1,1.5,1.2,3.281,3.281,0,0,1,.6,2.1,4.282,4.282,0,0,1-.6,2.2,4.034,4.034,0,0,1-1.8,1.6,5.954,5.954,0,0,1-2.7.6A5.736,5.736,0,0,1,93.8,20.6Z" fill="#161853"/>
      <path id="Path_553" data-name="Path 553" d="M106.1,20.6a4.26,4.26,0,0,1-2-1.5,4.577,4.577,0,0,1-.8-2.4h3.6a2.195,2.195,0,0,0,.5,1.2,2,2,0,0,0,2.4,0,1.159,1.159,0,0,0,.4-1,1.613,1.613,0,0,0-.3-.9,3.49,3.49,0,0,0-.9-.6c-.3-.1-.8-.3-1.5-.5-.9-.3-1.6-.6-2.2-.8a4.428,4.428,0,0,1-1.5-1.2,3.48,3.48,0,0,1-.6-2.1,3.95,3.95,0,0,1,1.4-3.1,6.773,6.773,0,0,1,7.4,0,3.887,3.887,0,0,1,1.5,3.1h-3.7a1.433,1.433,0,0,0-.5-1.1,1.594,1.594,0,0,0-1.2-.4,1.689,1.689,0,0,0-1,.3,1.053,1.053,0,0,0-.4,1,1.255,1.255,0,0,0,.6,1.1,8.148,8.148,0,0,0,2,.8,16.474,16.474,0,0,1,2.2.9,4.428,4.428,0,0,1,1.5,1.2,3.281,3.281,0,0,1,.6,2.1,4.282,4.282,0,0,1-.6,2.2,4.034,4.034,0,0,1-1.8,1.6,5.954,5.954,0,0,1-2.7.6A5.736,5.736,0,0,1,106.1,20.6Z" fill="#161853"/>
      <path id="Path_554" data-name="Path 554" d="M135.4,7l-3.7,14h-4.1l-2.2-9.2L123.1,21H119L115.4,7h3.7l2,10.2L123.5,7h3.8l2.4,10.2,2-10.2h3.7Z" fill="#161853"/>
      <path id="Path_555" data-name="Path 555" d="M140.1,20.2a6.506,6.506,0,0,1-2.6-2.6,7.566,7.566,0,0,1-1-3.7,6.633,6.633,0,0,1,1-3.7,7.2,7.2,0,0,1,2.6-2.6,7.65,7.65,0,0,1,7.2,0,6.506,6.506,0,0,1,2.6,2.6,7.566,7.566,0,0,1,1,3.7,6.633,6.633,0,0,1-1,3.7,6.506,6.506,0,0,1-2.6,2.6,7.4,7.4,0,0,1-3.6.9A7.683,7.683,0,0,1,140.1,20.2Zm6.4-3.3a4.04,4.04,0,0,0,1-3,4.359,4.359,0,0,0-1-3,3.864,3.864,0,0,0-5.4,0,4.04,4.04,0,0,0-1,3,4.359,4.359,0,0,0,1,3,3.864,3.864,0,0,0,5.4,0Z" fill="#161853"/>
      <path id="Path_556" data-name="Path 556" d="M160,21l-2.9-5.3h-.8V21h-3.4V7h5.7a6.088,6.088,0,0,1,2.8.6,4.034,4.034,0,0,1,1.8,1.6,4.282,4.282,0,0,1,.6,2.2,4.228,4.228,0,0,1-3.1,4.1l3.2,5.6H160Zm-3.7-7.7h2.1a1.978,1.978,0,0,0,1.4-.5,1.728,1.728,0,0,0,.5-1.3,1.9,1.9,0,0,0-.5-1.3,1.978,1.978,0,0,0-1.4-.5h-2.1Z" fill="#161853"/>
      <path id="Path_557" data-name="Path 557" d="M175,7.8a6.267,6.267,0,0,1,2.6,2.5,7.508,7.508,0,0,1,.9,3.7,7.508,7.508,0,0,1-.9,3.7,6.267,6.267,0,0,1-2.6,2.5,8.025,8.025,0,0,1-3.9.9h-5.3V7h5.3A9.346,9.346,0,0,1,175,7.8ZM174,17a4.081,4.081,0,0,0,1.1-3,4.081,4.081,0,0,0-1.1-3,4.081,4.081,0,0,0-3-1.1h-1.6V18H171A4.359,4.359,0,0,0,174,17Z" fill="#161853"/>
    </g>
    <g id="Component_2_10" transform="translate(213 160)">
      <g id="Ellipse_13">
        <g id="Group_1397" data-name="Group 1397">
          <g id="Group_1396" data-name="Group 1396">
            <circle id="Ellipse_136" data-name="Ellipse 136" cx="2" cy="2" r="2" transform="translate(-67.4 -152.3)" fill="#ec255a"/>
          </g>
        </g>
        <g id="Group_1399" data-name="Group 1399">
          <g id="Group_1398" data-name="Group 1398">
            <path id="Path_558" data-name="Path 558" d="M-65.4-147.3a2.946,2.946,0,0,1-3-3,2.946,2.946,0,0,1,3-3,2.946,2.946,0,0,1,3,3A2.946,2.946,0,0,1-65.4-147.3Zm0-5a2.006,2.006,0,0,0-2,2,2.006,2.006,0,0,0,2,2,2.006,2.006,0,0,0,2-2A2.006,2.006,0,0,0-65.4-152.3Z" fill="#fff"/>
          </g>
        </g>
      </g>
    </g>
  </g>
</svg>
