<svg xmlns="http://www.w3.org/2000/svg" width="33" height="41.653" viewBox="0 0 33 41.653">
  <g id="Group_803" data-name="Group 803" transform="translate(-603 -350.395)">
    <path id="Path_16" data-name="Path 16" d="M22.946.322A1.008,1.008,0,0,0,22.222,0H5.973A5.5,5.5,0,0,0,.5,5.463V36.19a5.5,5.5,0,0,0,5.473,5.463H28.027A5.5,5.5,0,0,0,33.5,36.19v-24.4a1.083,1.083,0,0,0-.292-.7Zm.292,3.23,6.872,7.214H25.643a2.4,2.4,0,0,1-2.4-2.394Zm4.789,36.089H5.973A3.485,3.485,0,0,1,2.512,36.19V5.463A3.485,3.485,0,0,1,5.973,2.012H21.226V8.371a4.4,4.4,0,0,0,4.417,4.407h5.845V36.19A3.478,3.478,0,0,1,28.027,39.641Zm0,0" transform="translate(602.5 350.395)" fill="#161853"/>
    <path id="Path_17" data-name="Path 17" d="M106.739,401.934H90.178a1.006,1.006,0,0,0,0,2.012h16.571a1.006,1.006,0,1,0-.01-2.012Zm0,0" transform="translate(521.041 -16.492)" fill="#161853"/>
    <path id="Path_18" data-name="Path 18" d="M120.14,178.316l4.145-4.457v10.987a1.006,1.006,0,0,0,2.012,0V173.858l4.145,4.457a1,1,0,0,0,1.469-1.368l-5.9-6.328a1,1,0,0,0-1.469,0l-5.9,6.328a1,1,0,0,0,.05,1.419A1.027,1.027,0,0,0,120.14,178.316Zm0,0" transform="translate(494.209 196.299)" fill="#161853"/>
  </g>
</svg>
