<svg id="Group_719" data-name="Group 719" xmlns="http://www.w3.org/2000/svg" xmlns:xlink="http://www.w3.org/1999/xlink" width="21.539" height="21.533" viewBox="0 0 21.539 21.533">
  <defs>
    <clipPath id="clip-path">
      <rect id="Rectangle_290" data-name="Rectangle 290" width="21.539" height="21.533" fill="#161853"/>
    </clipPath>
  </defs>
  <g id="Group_719-2" data-name="Group 719" clip-path="url(#clip-path)">
    <path id="Path_300" data-name="Path 300" d="M10.764,201.4c-2,0-4,.014-6,0A4.606,4.606,0,0,1,.607,199a4.464,4.464,0,0,1-.6-2.3Q0,194.684,0,192.667A.994.994,0,0,1,1,191.61a.988.988,0,0,1,.964,1.06c0,1.322,0,2.643,0,3.965a2.728,2.728,0,0,0,2.808,2.8q5.993,0,11.986,0a2.727,2.727,0,0,0,2.809-2.8c0-1.345,0-2.689,0-4.034a.976.976,0,0,1,1.741-.619.92.92,0,0,1,.214.592c-.01,1.528.062,3.057-.031,4.582a4.666,4.666,0,0,1-3.811,4.16,6.392,6.392,0,0,1-1.026.081h-5.89" transform="translate(0 -179.87)" fill="#161853"/>
    <path id="Path_301" data-name="Path 301" d="M69.941,3.347a1.221,1.221,0,0,1-.137.209q-1.949,1.956-3.9,3.908a.99.99,0,0,1-1.08.3.976.976,0,0,1-.44-1.537,2.214,2.214,0,0,1,.158-.166L70.21.388a.992.992,0,0,1,1.575,0q2.852,2.851,5.7,5.7a.976.976,0,0,1-.1,1.559.96.96,0,0,1-1.252-.145c-.576-.569-1.146-1.144-1.718-1.717Q73.3,4.665,72.168,3.539c-.052-.052-.09-.123-.175-.144a.434.434,0,0,0-.021.242q0,5.947,0,11.894a.989.989,0,0,1-.782,1.082.973.973,0,0,1-1.159-.855c-.009-.106-.007-.214-.007-.321q0-5.89,0-11.779V3.411l-.081-.064" transform="translate(-60.232 0)" fill="#161853"/>
  </g>
</svg>
