<svg xmlns="http://www.w3.org/2000/svg" width="23.768" height="30" viewBox="0 0 23.768 30">
  <g id="Group_342" data-name="Group 342" transform="translate(1159.5 -2604)">
    <path id="Path_166" data-name="Path 166" d="M16.667.232A.726.726,0,0,0,16.145,0H4.442A3.959,3.959,0,0,0,.5,3.935v22.13A3.959,3.959,0,0,0,4.442,30H20.326a3.959,3.959,0,0,0,3.942-3.935V8.493a.78.78,0,0,0-.21-.507Zm.21,2.326,4.949,5.2H18.609a1.726,1.726,0,0,1-1.732-1.725Zm3.449,25.993H4.442a2.51,2.51,0,0,1-2.493-2.486V3.935A2.51,2.51,0,0,1,4.442,1.449H15.427v4.58A3.17,3.17,0,0,0,18.609,9.2h4.21V26.065A2.505,2.505,0,0,1,20.326,28.551Zm0,0" transform="translate(-1160 2604)" fill="#161853"/>
    <path id="Path_168" data-name="Path 168" d="M101.824,401.934H89.9a.725.725,0,0,0,0,1.449h11.935a.725.725,0,1,0-.007-1.449Zm0,0" transform="translate(-1243.476 2227.308)" fill="#161853"/>
    <path id="Path_167" data-name="Path 167" d="M119.648,176.072l2.986-3.21v7.913a.725.725,0,0,0,1.449,0v-7.913l2.986,3.21a.723.723,0,0,0,1.058-.986l-4.246-4.558a.719.719,0,0,0-1.058,0l-4.246,4.558a.722.722,0,0,0,.036,1.022A.739.739,0,0,0,119.648,176.072Zm0,0" transform="translate(-1270.974 2445.372)" fill="#161853"/>
  </g>
</svg>
