<svg xmlns="http://www.w3.org/2000/svg" width="15.571" height="10.899" viewBox="0 0 15.571 10.899">
  <g id="Group_758" data-name="Group 758" transform="translate(-1.554 -3.888)">
    <path id="Path_294" data-name="Path 294" d="M17.463,10.058c-.5-.864-3.237-5.2-7.891-5.059-4.3.109-6.794,3.891-7.471,5.059a.778.778,0,0,0,0,.778c.49.848,3.113,5.059,7.7,5.059h.195c4.3-.109,6.8-3.891,7.471-5.059A.778.778,0,0,0,17.463,10.058Zm-7.51,4.28c-3.354.078-5.541-2.794-6.226-3.891.778-1.253,2.809-3.813,5.922-3.891,3.339-.086,5.533,2.794,6.226,3.891-.8,1.253-2.809,3.813-5.922,3.891Z" transform="translate(-0.442 -1.107)" fill="#ec255a"/>
    <path id="Path_295" data-name="Path 295" d="M11.224,8.5a2.724,2.724,0,1,0,2.724,2.724A2.724,2.724,0,0,0,11.224,8.5Zm0,3.891a1.167,1.167,0,1,1,1.167-1.167A1.167,1.167,0,0,1,11.224,12.391Z" transform="translate(-1.885 -1.885)" fill="#ec255a"/>
  </g>
</svg>
