<svg id="Group_723" data-name="Group 723" xmlns="http://www.w3.org/2000/svg" xmlns:xlink="http://www.w3.org/1999/xlink" width="30.479" height="19.423" viewBox="0 0 30.479 19.423">
  <defs>
    <clipPath id="clip-path">
      <rect id="Rectangle_293" data-name="Rectangle 293" width="30.479" height="19.423" fill="#161853"/>
    </clipPath>
  </defs>
  <g id="Group_723-2" data-name="Group 723" clip-path="url(#clip-path)">
    <path id="Path_306" data-name="Path 306" d="M30.479,9.889a6.431,6.431,0,0,1-.444.731A27.1,27.1,0,0,1,22.4,17.342,14.656,14.656,0,0,1,16.038,19.4a12.711,12.711,0,0,1-5.42-.853,21.938,21.938,0,0,1-6.964-4.468,28.913,28.913,0,0,1-3.329-3.6,1.062,1.062,0,0,1,0-1.531A27.1,27.1,0,0,1,8.044,2.1,14.024,14.024,0,0,1,15.771.013a13.634,13.634,0,0,1,5.446,1.446,26.2,26.2,0,0,1,8.964,7.53,3.612,3.612,0,0,1,.3.543Zm-2.237-.159c-.62-.671-1.169-1.3-1.753-1.889a21.525,21.525,0,0,0-6.722-4.824,11.471,11.471,0,0,0-4.046-.993A11.808,11.808,0,0,0,9.674,3.5a22.379,22.379,0,0,0-5.616,4.26c-.611.619-1.185,1.274-1.805,1.945.6.651,1.157,1.284,1.747,1.881A21.514,21.514,0,0,0,10.7,16.4a11.518,11.518,0,0,0,4.045,1,11.816,11.816,0,0,0,6.049-1.473,21.1,21.1,0,0,0,4.957-3.614c.849-.816,1.639-1.692,2.493-2.581" transform="translate(0 0)" fill="#161853"/>
    <path id="Path_307" data-name="Path 307" d="M135.658,55.479a6.022,6.022,0,1,1-6-6.027,6.024,6.024,0,0,1,6,6.027m-2.008-.011a4.016,4.016,0,1,0-4,4.023,4.019,4.019,0,0,0,4-4.023" transform="translate(-114.397 -45.765)" fill="#161853"/>
  </g>
</svg>
